<?xml version="1.0" encoding="utf-8"?>
<!-- Generator: Adobe Illustrator 16.0.0, SVG Export Plug-In . SVG Version: 6.00 Build 0)  -->
<!DOCTYPE svg PUBLIC "-//W3C//DTD SVG 1.1//EN" "http://www.w3.org/Graphics/SVG/1.1/DTD/svg11.dtd">
<svg version="1.1" id="Layer_1" xmlns="http://www.w3.org/2000/svg" xmlns:xlink="http://www.w3.org/1999/xlink" x="0px" y="0px"
	 width="16px" height="16px" viewBox="0 0 16 16" enable-background="new 0 0 16 16" xml:space="preserve">
<g>
	<path d="M8.521,10.342L7.757,9.578l0.442-0.441c0.309-0.311,0.653-0.451,1.005-0.102c0.143,0.143,0.204,0.281,0.211,0.412
		l0.654-0.652c-0.086-0.15-0.203-0.293-0.338-0.429C9.236,7.872,8.464,7.875,7.79,8.549L7.259,9.08L6.826,8.645l1.332-1.332
		L7.593,6.748L5.692,8.648l2.262,2.262L8.521,10.342z"/>
	<polygon points="9.288,6.182 10.984,4.487 10.419,3.921 8.158,6.182 10.419,8.445 10.984,7.878 	"/>
	<rect x="11.716" y="5.782" transform="matrix(0.7065 -0.7077 0.7077 0.7065 -0.8193 10.3886)" width="0.799" height="0.8"/>
	<rect x="10.585" y="5.782" transform="matrix(0.7071 -0.7071 0.7071 0.7071 -1.1542 9.5778)" width="0.8" height="0.8"/>
	<rect x="7.55" y="2.748" transform="matrix(-0.7074 -0.7068 0.7068 -0.7074 11.3485 10.9937)" width="0.799" height="0.8"/>
	<rect x="7.55" y="1.617" transform="matrix(-0.7068 -0.7074 0.7074 -0.7068 12.142 9.0657)" width="0.799" height="0.8"/>
	<g>
		<path d="M4.797,5.084C5.033,5.38,4.823,5.63,4.576,5.877L4.314,6.14L3.787,5.613L3.222,6.179L5.41,8.366l0.836-0.837
			c0.291-0.289,0.581-0.58,0.702-0.973c0.125-0.38,0.034-0.747-0.22-1.001C6.363,5.191,5.804,5.231,5.353,5.588
			c0.308-0.442,0.344-0.845-0.02-1.209C5.276,4.323,5.217,4.279,5.158,4.242L4.487,4.914C4.609,4.92,4.701,4.963,4.797,5.084z
			 M6.066,6.112c0.313,0.314,0.05,0.716-0.24,1.007L5.559,7.384L4.811,6.635l0.305-0.304C5.411,6.038,5.765,5.811,6.066,6.112z"/>
		<path d="M6.538,2.863L5.747,3.654c0.06,0.362,0.238,0.719,0.568,1.048c0.958,0.961,2.041,0.764,2.937-0.131
			c0.294-0.295,0.591-0.687,0.768-1.061L9.084,2.578L8.515,3.147l0.581,0.581c-0.08,0.148-0.225,0.314-0.343,0.433
			C8.187,4.726,7.478,4.597,6.927,4.045C6.56,3.68,6.442,3.261,6.538,2.863z"/>
	</g>
</g>
<g>
	<path d="M0.229,13.285c0.034,0.285,0.217,0.463,0.476,0.463c0.156,0,0.299-0.049,0.449-0.139v0.256
		c-0.165,0.072-0.3,0.104-0.461,0.104c-0.448,0-0.732-0.295-0.732-0.768c0-0.447,0.271-0.738,0.675-0.738
		c0.485,0,0.623,0.408,0.623,0.822H0.229z M0.232,13.078h0.76c-0.024-0.213-0.122-0.402-0.366-0.402
		C0.418,12.676,0.265,12.828,0.232,13.078z"/>
	<path d="M2.769,12.504v0.9c0,0.178,0.013,0.352,0.022,0.527H2.54l-0.012-0.223c-0.113,0.164-0.281,0.246-0.482,0.246
		c-0.433,0-0.532-0.324-0.532-0.693v-0.758h0.27v0.666c0,0.211,0.005,0.309,0.033,0.377c0.049,0.129,0.149,0.195,0.281,0.195
		c0.244,0,0.406-0.203,0.406-0.514v-0.725H2.769z"/>
	<path d="M3.159,12.074c0.213-0.088,0.335-0.115,0.519-0.115c0.381,0,0.638,0.215,0.638,0.533c0,0.248-0.134,0.477-0.506,0.848
		c-0.162,0.166-0.293,0.279-0.425,0.377c0.067-0.018,0.138-0.018,0.208-0.018h0.766v0.232H3.112v-0.295
		c0.271-0.232,0.904-0.768,0.904-1.135c0-0.184-0.162-0.318-0.382-0.318c-0.143,0-0.287,0.049-0.445,0.141L3.159,12.074z"/>
	<path d="M5.288,11.949c0.565,0,0.666,0.58,0.666,1.021s-0.11,0.998-0.666,0.998s-0.662-0.588-0.662-1.025
		C4.625,12.508,4.741,11.949,5.288,11.949z M5.284,12.174c-0.241,0-0.375,0.285-0.375,0.779c0,0.256,0.027,0.789,0.384,0.789
		c0.248,0,0.376-0.27,0.376-0.783C5.669,12.457,5.535,12.174,5.284,12.174z"/>
	<path d="M6.959,11.98v1.951H6.682v-1.184c0-0.234,0.002-0.35,0.002-0.463c-0.079,0.104-0.208,0.191-0.305,0.277l-0.156-0.184
		l0.48-0.398H6.959z"/>
	<path d="M8.377,12.887c0.241,0.078,0.427,0.256,0.427,0.525c0,0.363-0.317,0.557-0.65,0.557c-0.32,0-0.702-0.168-0.702-0.539
		c0-0.273,0.186-0.445,0.428-0.535C7.657,12.85,7.5,12.66,7.5,12.426c0-0.326,0.332-0.473,0.618-0.473
		c0.276,0,0.624,0.141,0.624,0.463C8.741,12.645,8.575,12.801,8.377,12.887z M8.081,13.012c-0.152,0.076-0.326,0.197-0.326,0.385
		c0,0.215,0.198,0.346,0.397,0.346c0.18,0,0.366-0.111,0.366-0.307C8.518,13.191,8.274,13.084,8.081,13.012z M8.186,12.801
		c0.125-0.082,0.268-0.203,0.268-0.369c0-0.178-0.18-0.27-0.338-0.27c-0.153,0-0.333,0.096-0.333,0.27
		C7.783,12.621,8.032,12.736,8.186,12.801z"/>
	<path d="M9.532,11.824v0.76c0,0.055-0.003,0.111-0.007,0.164c0.07-0.16,0.267-0.271,0.493-0.271c0.371,0,0.616,0.285,0.616,0.727
		c0,0.457-0.248,0.752-0.62,0.752c-0.223,0-0.396-0.098-0.485-0.266v0.242H9.267v-2.107H9.532z M9.96,12.703
		c-0.241,0-0.422,0.221-0.422,0.516c0,0.289,0.181,0.51,0.415,0.51c0.232,0,0.4-0.217,0.4-0.512
		C10.354,12.91,10.19,12.703,9.96,12.703z"/>
	<path d="M12.12,12.498v1.184c0,0.523-0.089,0.867-0.698,0.867c-0.192,0-0.351-0.027-0.543-0.096l0.023-0.258
		c0.188,0.09,0.344,0.131,0.514,0.131c0.194,0,0.335-0.08,0.401-0.217c0.062-0.127,0.045-0.275,0.052-0.41
		c-0.105,0.154-0.27,0.236-0.475,0.236c-0.378,0-0.633-0.283-0.633-0.711c0-0.443,0.257-0.748,0.627-0.748
		c0.22,0,0.406,0.107,0.48,0.271c0-0.016,0.005-0.027,0.005-0.033l-0.005-0.039v-0.178H12.12z M11.449,12.703
		c-0.236,0-0.406,0.217-0.406,0.518c0,0.287,0.161,0.488,0.397,0.488c0.247,0,0.418-0.205,0.418-0.5
		C11.858,12.924,11.682,12.703,11.449,12.703z"/>
	<path d="M13.353,11.824v0.76c0,0.055-0.002,0.111-0.005,0.164c0.07-0.16,0.267-0.271,0.49-0.271c0.373,0,0.617,0.285,0.617,0.727
		c0,0.457-0.248,0.752-0.619,0.752c-0.222,0-0.396-0.098-0.485-0.266v0.242h-0.263v-2.107H13.353z M13.78,12.703
		c-0.241,0-0.421,0.221-0.421,0.516c0,0.289,0.18,0.51,0.415,0.51c0.231,0,0.399-0.217,0.399-0.512
		C14.174,12.91,14.012,12.703,13.78,12.703z"/>
	<path d="M15.941,12.498v1.184c0,0.523-0.09,0.867-0.699,0.867c-0.191,0-0.35-0.027-0.543-0.096l0.023-0.258
		c0.188,0.09,0.342,0.131,0.515,0.131c0.194,0,0.334-0.08,0.401-0.217c0.062-0.127,0.044-0.275,0.052-0.41
		c-0.105,0.154-0.271,0.236-0.477,0.236c-0.377,0-0.63-0.283-0.63-0.711c0-0.443,0.256-0.748,0.625-0.748
		c0.22,0,0.405,0.107,0.481,0.271c0-0.016,0.004-0.027,0.004-0.033l-0.004-0.039v-0.178H15.941z M15.27,12.703
		c-0.237,0-0.405,0.217-0.405,0.518c0,0.287,0.162,0.488,0.396,0.488c0.248,0,0.418-0.205,0.418-0.5
		C15.679,12.924,15.502,12.703,15.27,12.703z"/>
	<path d="M12.605,13.555l0.223,0.223l-0.22,0.221l-0.223-0.223L12.605,13.555z"/>
</g>
</svg>
