<?xml version="1.0" encoding="utf-8"?>
<!-- Generator: Adobe Illustrator 16.0.0, SVG Export Plug-In . SVG Version: 6.00 Build 0)  -->
<!DOCTYPE svg PUBLIC "-//W3C//DTD SVG 1.1//EN" "http://www.w3.org/Graphics/SVG/1.1/DTD/svg11.dtd">
<svg version="1.1" id="Layer_1" xmlns="http://www.w3.org/2000/svg" xmlns:xlink="http://www.w3.org/1999/xlink" x="0px" y="0px"
	 width="16px" height="16px" viewBox="0 0 16 16" enable-background="new 0 0 16 16" xml:space="preserve">
<g>
	<path d="M8.915,14.892l-1.264-1.264l0.731-0.732c0.512-0.514,1.083-0.748,1.666-0.17c0.235,0.238,0.337,0.467,0.35,0.684
		l1.082-1.08c-0.14-0.248-0.335-0.484-0.56-0.711c-0.818-0.818-2.1-0.811-3.216,0.303l-0.877,0.881l-0.718-0.721l2.206-2.205
		L7.379,8.938L4.23,12.087l3.747,3.746L8.915,14.892z"/>
	<polygon points="10.186,8.002 12.996,5.194 12.061,4.258 8.314,8.002 12.061,11.749 12.996,10.812 	"/>
	<rect x="14.207" y="7.339" transform="matrix(0.7064 -0.7078 0.7078 0.7064 -1.2982 12.8743)" width="1.323" height="1.327"/>
	<rect x="12.334" y="7.34" transform="matrix(0.7067 -0.7075 0.7075 0.7067 -1.8499 11.5411)" width="1.324" height="1.324"/>
	<rect x="7.309" y="2.315" transform="matrix(-0.7067 -0.7075 0.7075 -0.7067 11.497 10.7194)" width="1.323" height="1.324"/>
	<rect x="7.308" y="0.441" transform="matrix(-0.7064 -0.7078 0.7078 -0.7064 12.8194 7.5238)" width="1.324" height="1.324"/>
	<g>
		<path d="M2.749,6.185c0.39,0.49,0.044,0.904-0.366,1.312L1.949,7.933L1.076,7.06L0.14,7.997l3.624,3.621l1.385-1.385
			c0.48-0.48,0.961-0.963,1.162-1.611c0.208-0.63,0.057-1.238-0.365-1.658C5.341,6.361,4.417,6.427,3.668,7.019
			C4.179,6.286,4.24,5.62,3.636,5.017C3.542,4.922,3.444,4.85,3.346,4.789L2.234,5.901C2.437,5.913,2.589,5.983,2.749,6.185z
			 M4.85,7.886c0.52,0.521,0.083,1.186-0.397,1.668L4.01,9.993l-1.239-1.24L3.276,8.25C3.765,7.763,4.351,7.388,4.85,7.886z"/>
		<path d="M5.631,2.505l-1.31,1.309c0.099,0.601,0.394,1.191,0.94,1.736c1.588,1.591,3.381,1.265,4.864-0.217
			c0.487-0.488,0.978-1.137,1.271-1.756L9.849,2.033L8.905,2.976l0.964,0.962C9.735,4.183,9.497,4.458,9.3,4.654
			C8.363,5.591,7.188,5.377,6.276,4.463C5.668,3.859,5.474,3.165,5.631,2.505z"/>
	</g>
</g>
</svg>
