<?xml version="1.0" encoding="utf-8"?>
<!-- Generator: Adobe Illustrator 16.0.0, SVG Export Plug-In . SVG Version: 6.00 Build 0)  -->
<!DOCTYPE svg PUBLIC "-//W3C//DTD SVG 1.1//EN" "http://www.w3.org/Graphics/SVG/1.1/DTD/svg11.dtd">
<svg version="1.1"
	 id="svg12" inkscape:version="0.92.1 r15371" sodipodi:docname="checkmark.svg" xmlns:svg="http://www.w3.org/2000/svg" xmlns:rdf="http://www.w3.org/1999/02/22-rdf-syntax-ns#" xmlns:sodipodi="http://sodipodi.sourceforge.net/DTD/sodipodi-0.dtd" xmlns:cc="http://creativecommons.org/ns#" xmlns:dc="http://purl.org/dc/elements/1.1/" xmlns:inkscape="http://www.inkscape.org/namespaces/inkscape"
	 xmlns="http://www.w3.org/2000/svg" xmlns:xlink="http://www.w3.org/1999/xlink" x="0px" y="0px" width="160.5px"
	 height="57.167px" viewBox="-13.5 0 160.5 57.167" enable-background="new -13.5 0 160.5 57.167" xml:space="preserve">
<sodipodi:namedview  id="namedview14" inkscape:current-layer="svg12" inkscape:window-width="1920" inkscape:window-x="-8" inkscape:pageshadow="2" inkscape:pageopacity="0" inkscape:window-height="1017" inkscape:window-maximized="1" inkscape:window-y="-8" showgrid="false" inkscape:zoom="16.857143" bordercolor="#666666" pagecolor="#ffffff" inkscape:cx="8.2881356" inkscape:cy="7" borderopacity="1" gridtolerance="10" objecttolerance="10" guidetolerance="10">
	</sodipodi:namedview>
<title  id="title2">6C91200F-6979-43C1-ACC9-BE9F70EF6B0A</title>
<desc  id="desc4">Created with sketchtool.</desc>
<g id="g895_2_" transform="translate(0.002,9.1)">
	<g id="layer1_2_">
		<g id="g1155_2_" transform="translate(-0.4,0.9)">
			<path id="path1132_2_" fill="#E6242F" d="M-8.053,2.842c0.447,0.434,1.093,0.645,1.926,0.645c0.596,0,1.117-0.148,1.553-0.447
				C-4.14,2.742-3.879,2.418-3.78,2.084h2.622C-1.581,3.389-2.227,4.32-3.084,4.879c-0.869,0.559-1.912,0.846-3.143,0.846
				c-0.857,0-1.628-0.137-2.312-0.41c-0.683-0.273-1.267-0.66-1.739-1.168c-0.473-0.51-0.846-1.107-1.105-1.803
				c-0.262-0.695-0.386-1.467-0.386-2.311c0-0.809,0.137-1.566,0.397-2.273c0.262-0.698,0.646-1.305,1.131-1.815
				s1.068-0.92,1.752-1.205c0.684-0.299,1.429-0.436,2.262-0.436c0.92,0,1.727,0.174,2.41,0.535
				c0.684,0.359,1.255,0.832,1.689,1.441c0.436,0.596,0.759,1.292,0.957,2.063c0.199,0.77,0.262,1.578,0.211,2.41h-7.828
				C-8.749,1.711-8.5,2.406-8.053,2.842z M-4.686-2.875c-0.361-0.396-0.895-0.584-1.629-0.584c-0.472,0-0.869,0.074-1.18,0.236
				s-0.572,0.361-0.758,0.596c-0.187,0.237-0.323,0.487-0.398,0.758c-0.074,0.262-0.124,0.51-0.137,0.709h4.847
				C-4.078-1.906-4.327-2.477-4.686-2.875z M-3.979,26.113v-1.516H-4.04c-0.372,0.635-0.87,1.082-1.466,1.367
				c-0.597,0.285-1.219,0.422-1.852,0.422c-0.795,0-1.454-0.1-1.963-0.311c-0.51-0.211-0.92-0.51-1.205-0.895
				c-0.299-0.385-0.498-0.857-0.622-1.404s-0.174-1.168-0.174-1.838v-6.674h2.981v6.127c0,0.895,0.138,1.564,0.424,2
				c0.285,0.436,0.782,0.658,1.49,0.658c0.808,0,1.404-0.236,1.765-0.721s0.546-1.279,0.546-2.385v-5.691h2.982v10.859H-3.979
				L-3.979,26.113z"/>
			<path id="path1134_2_" fill="#FFFFFF" d="M9.876-5.944c0.223-0.721,0.559-1.355,1.006-1.889c0.447-0.535,1.006-0.957,1.689-1.256
				c0.684-0.297,1.454-0.447,2.336-0.447c0.672,0,1.318,0.1,1.927,0.311s1.143,0.51,1.603,0.908c0.46,0.396,0.832,0.869,1.105,1.453
				c0.273,0.572,0.41,1.217,0.41,1.926c0,0.746-0.124,1.379-0.359,1.914c-0.236,0.534-0.56,1.006-0.945,1.417
				c-0.397,0.41-0.832,0.783-1.329,1.119c-0.497,0.334-0.994,0.67-1.503,0.994c-0.51,0.322-0.994,0.682-1.467,1.055
				s-0.895,0.82-1.255,1.318h6.946v2.559H9.254c0-0.857,0.124-1.59,0.373-2.225c0.249-0.633,0.571-1.191,0.993-1.689
				c0.423-0.496,0.908-0.957,1.479-1.379s1.168-0.846,1.789-1.279c0.323-0.225,0.659-0.447,1.031-0.684
				c0.36-0.236,0.696-0.484,0.994-0.772c0.298-0.285,0.546-0.596,0.758-0.943c0.199-0.348,0.298-0.746,0.298-1.193
				c0-0.707-0.211-1.268-0.621-1.664c-0.41-0.398-0.944-0.598-1.59-0.598c-0.436,0-0.795,0.1-1.106,0.311
				c-0.298,0.199-0.546,0.473-0.72,0.797c-0.188,0.322-0.312,0.695-0.387,1.092c-0.074,0.398-0.111,0.797-0.111,1.182H9.578
				C9.552-4.454,9.652-5.223,9.876-5.944z M30.552-5.571c0.285-0.971,0.67-1.752,1.168-2.336c0.484-0.584,1.056-1.008,1.715-1.256
				c0.646-0.248,1.342-0.373,2.062-0.373c0.745,0,1.441,0.125,2.087,0.373c0.646,0.248,1.23,0.672,1.728,1.256
				c0.496,0.584,0.895,1.365,1.18,2.336c0.286,0.969,0.436,2.174,0.436,3.604c0,1.465-0.149,2.695-0.436,3.689
				c-0.285,0.982-0.684,1.777-1.18,2.361c-0.497,0.584-1.068,1.006-1.728,1.254c-0.646,0.25-1.342,0.373-2.087,0.373
				c-0.733,0-1.417-0.123-2.062-0.373c-0.646-0.248-1.219-0.67-1.715-1.254c-0.484-0.584-0.883-1.379-1.168-2.361
				c-0.286-0.982-0.436-2.211-0.436-3.689C30.117-3.397,30.266-4.602,30.552-5.571L30.552-5.571z M33.149-0.451
				c0.024,0.596,0.112,1.168,0.261,1.727c0.149,0.559,0.385,1.031,0.709,1.416c0.322,0.398,0.782,0.584,1.391,0.584
				c0.621,0,1.094-0.199,1.417-0.584c0.323-0.396,0.571-0.869,0.708-1.416c0.148-0.547,0.236-1.131,0.261-1.727
				c0.024-0.598,0.038-1.105,0.038-1.529c0-0.248,0-0.559-0.014-0.92c-0.012-0.359-0.037-0.721-0.086-1.105
				c-0.051-0.373-0.125-0.758-0.211-1.117c-0.088-0.373-0.225-0.709-0.41-0.994c-0.188-0.299-0.41-0.535-0.696-0.709
				C36.23-7.012,35.894-7.1,35.484-7.1c-0.409,0-0.744,0.088-1.018,0.273c-0.273,0.188-0.498,0.422-0.672,0.709
				c-0.174,0.297-0.311,0.621-0.41,0.994s-0.174,0.744-0.211,1.117s-0.062,0.746-0.074,1.105c-0.013,0.361-0.013,0.661-0.013,0.92
				C33.099-1.545,33.111-1.049,33.149-0.451z M14.423,26.113v-9.529h-3.689v-2.25c0.521,0.014,1.019-0.023,1.503-0.111
				c0.484-0.086,0.919-0.248,1.305-0.484s0.708-0.535,0.981-0.92c0.262-0.373,0.436-0.844,0.521-1.404h2.373v14.699H14.423z
				 M31.024,13.391c0.298-0.51,0.671-0.92,1.144-1.256c0.472-0.336,0.994-0.584,1.59-0.758c0.584-0.174,1.181-0.248,1.789-0.248
				c0.908,0,1.678,0.137,2.312,0.422c0.634,0.287,1.144,0.621,1.517,1.02c0.385,0.396,0.658,0.82,0.832,1.279
				c0.174,0.461,0.248,0.869,0.248,1.23c0,0.732-0.174,1.367-0.534,1.914s-0.895,0.932-1.603,1.18v0.037
				c0.883,0.199,1.565,0.609,2.037,1.256c0.473,0.633,0.709,1.416,0.709,2.336c0,0.783-0.162,1.465-0.473,2.037
				s-0.732,1.043-1.255,1.43c-0.522,0.373-1.106,0.658-1.765,0.844c-0.658,0.188-1.329,0.287-2.013,0.287
				c-0.708,0-1.403-0.088-2.062-0.262c-0.671-0.174-1.255-0.447-1.789-0.832c-0.522-0.373-0.944-0.857-1.255-1.43
				s-0.473-1.254-0.473-2.062c0-0.932,0.236-1.727,0.721-2.348c0.484-0.635,1.168-1.057,2.051-1.256v-0.037
				c-0.709-0.199-1.256-0.572-1.615-1.117c-0.361-0.547-0.547-1.182-0.547-1.914C30.577,14.484,30.726,13.9,31.024,13.391
				L31.024,13.391z M33.162,22.697c0.137,0.311,0.322,0.57,0.559,0.783c0.236,0.211,0.51,0.385,0.832,0.508
				c0.324,0.125,0.659,0.176,1.008,0.176c0.359,0,0.695-0.062,0.993-0.176c0.298-0.123,0.571-0.285,0.796-0.508
				c0.235-0.213,0.409-0.484,0.533-0.783c0.125-0.311,0.188-0.646,0.188-1.008c0-0.348-0.062-0.67-0.199-0.955
				c-0.137-0.287-0.311-0.535-0.547-0.746s-0.497-0.373-0.795-0.484c-0.299-0.111-0.621-0.174-0.982-0.174
				c-0.732,0-1.342,0.199-1.851,0.596c-0.51,0.398-0.759,0.982-0.759,1.727C32.951,22.039,33.025,22.387,33.162,22.697
				L33.162,22.697z M33.957,16.844c0.447,0.324,0.969,0.498,1.578,0.498c0.633,0,1.155-0.162,1.578-0.498
				c0.422-0.322,0.633-0.807,0.633-1.441c0-0.197-0.024-0.41-0.086-0.645c-0.062-0.236-0.162-0.447-0.324-0.66
				c-0.161-0.211-0.385-0.385-0.67-0.521c-0.286-0.137-0.659-0.211-1.119-0.211c-0.298,0-0.571,0.049-0.845,0.137
				c-0.272,0.088-0.509,0.225-0.721,0.385c-0.211,0.174-0.372,0.373-0.497,0.635c-0.124,0.248-0.174,0.547-0.174,0.881
				C33.286,16.037,33.509,16.521,33.957,16.844L33.957,16.844z"/>
			<path id="path1136_2_" fill="#E6242F" d="M9.751,37.197c0.037-0.695,0.211-1.279,0.521-1.74c0.311-0.459,0.696-0.832,1.181-1.117
				c0.473-0.287,1.007-0.484,1.603-0.598c0.598-0.123,1.193-0.174,1.79-0.174c0.546,0,1.093,0.039,1.652,0.113
				s1.069,0.223,1.528,0.447c0.46,0.223,0.845,0.533,1.131,0.932c0.299,0.396,0.435,0.932,0.435,1.59v5.654
				c0,0.484,0.024,0.957,0.087,1.404c0.05,0.447,0.149,0.781,0.299,1.006h-3.02c-0.062-0.174-0.1-0.336-0.137-0.51
				s-0.062-0.348-0.074-0.533c-0.473,0.484-1.031,0.832-1.678,1.031C14.423,44.9,13.765,45,13.093,45
				c-0.521,0-1.006-0.062-1.453-0.186c-0.447-0.125-0.845-0.324-1.181-0.584c-0.335-0.262-0.597-0.598-0.782-1.008
				c-0.187-0.41-0.286-0.895-0.286-1.453c0-0.621,0.112-1.117,0.323-1.527c0.211-0.398,0.496-0.721,0.845-0.957
				s0.733-0.424,1.181-0.535c0.436-0.123,0.883-0.211,1.329-0.285c0.448-0.074,0.896-0.125,1.317-0.174
				c0.436-0.037,0.82-0.1,1.156-0.188c0.335-0.086,0.596-0.211,0.795-0.373c0.198-0.16,0.285-0.396,0.273-0.707
				c0-0.322-0.051-0.572-0.162-0.77c-0.1-0.188-0.248-0.336-0.422-0.436s-0.373-0.174-0.609-0.211s-0.484-0.051-0.746-0.051
				c-0.584,0-1.043,0.125-1.391,0.373c-0.336,0.248-0.535,0.672-0.584,1.256H9.751V37.197z M16.635,39.396
				c-0.124,0.111-0.286,0.199-0.472,0.262c-0.187,0.061-0.398,0.111-0.609,0.16c-0.211,0.051-0.447,0.076-0.684,0.1
				c-0.235,0.025-0.472,0.062-0.707,0.1c-0.225,0.037-0.448,0.1-0.66,0.174c-0.211,0.074-0.409,0.162-0.57,0.287
				c-0.162,0.123-0.286,0.273-0.386,0.447c-0.1,0.186-0.149,0.41-0.149,0.695c0,0.26,0.05,0.484,0.149,0.67
				c0.1,0.188,0.235,0.324,0.397,0.436s0.36,0.174,0.584,0.225c0.224,0.037,0.46,0.061,0.696,0.061c0.583,0,1.044-0.1,1.366-0.297
				c0.323-0.199,0.56-0.436,0.709-0.709c0.148-0.273,0.248-0.547,0.285-0.832s0.05-0.51,0.05-0.672V39.396L16.635,39.396z
				 M39.039,33.855v2h-2.188v5.381c0,0.51,0.088,0.844,0.249,1.006c0.174,0.174,0.509,0.248,1.007,0.248
				c0.174,0,0.322-0.012,0.484-0.025c0.148-0.012,0.298-0.037,0.435-0.061v2.311c-0.249,0.037-0.534,0.074-0.845,0.086
				c-0.311,0.014-0.609,0.025-0.907,0.025c-0.46,0-0.895-0.037-1.317-0.1c-0.41-0.061-0.783-0.186-1.094-0.373
				c-0.311-0.186-0.559-0.434-0.745-0.781c-0.187-0.336-0.273-0.783-0.273-1.318v-6.398h-1.802v-2h1.84V30.6h2.981v3.256H39.039z
				 M-4.301,37.818v3.518h-3.591v-3.518H-4.301z"/>
			<g id="g1140_2_">
				<path id="path1138_2_" fill="#E6242F" d="M66.076-9.051l2.262,6.039h-1.379l-0.46-1.342h-2.262l-0.472,1.342h-1.342l2.285-6.039
					H66.076z M65.38-7.573L64.597-5.36h1.566l-0.758-2.213H65.38z M71.457-7.399v2.473c0,0.336,0.049,0.598,0.161,0.783
					c0.112,0.188,0.311,0.273,0.608,0.273c0.336,0,0.572-0.1,0.709-0.297c0.148-0.199,0.211-0.51,0.211-0.945v-2.299h1.205v4.387
					h-1.143v-0.609h-0.025c-0.298,0.484-0.745,0.721-1.342,0.721c-0.572,0-0.981-0.148-1.218-0.436
					c-0.249-0.285-0.372-0.732-0.372-1.342v-2.709H71.457z M78.576-7.51c0.584,0,1.044,0.125,1.367,0.361
					c0.336,0.236,0.51,0.584,0.559,1.043h-1.143c-0.013-0.211-0.087-0.359-0.224-0.447C78.999-6.639,78.8-6.69,78.539-6.69
					c-0.224,0-0.397,0.037-0.497,0.1C77.93-6.528,77.88-6.417,77.88-6.292c0,0.1,0.037,0.186,0.111,0.248s0.187,0.125,0.336,0.174
					c0.148,0.049,0.311,0.088,0.496,0.125c0.547,0.111,0.933,0.211,1.156,0.334c0.224,0.113,0.385,0.25,0.497,0.41
					c0.1,0.162,0.161,0.348,0.161,0.584c0,0.484-0.174,0.871-0.533,1.131c-0.361,0.262-0.846,0.398-1.455,0.398
					c-0.646,0-1.143-0.137-1.503-0.41s-0.547-0.646-0.56-1.119h1.144c0,0.225,0.087,0.41,0.261,0.535
					c0.174,0.137,0.398,0.199,0.658,0.199c0.225,0,0.41-0.051,0.56-0.15s0.224-0.236,0.224-0.41c0-0.111-0.049-0.211-0.137-0.273
					c-0.087-0.074-0.224-0.137-0.397-0.197c-0.174-0.062-0.435-0.125-0.782-0.199c-0.286-0.062-0.535-0.137-0.758-0.225
					c-0.225-0.1-0.386-0.223-0.498-0.373c-0.111-0.148-0.174-0.348-0.174-0.57c0-0.285,0.074-0.535,0.211-0.758
					c0.137-0.211,0.349-0.373,0.635-0.484C77.806-7.459,78.154-7.51,78.576-7.51z M84.367-8.704v1.305h0.882v0.809h-0.882v2.162
					c0,0.199,0.037,0.336,0.1,0.41c0.062,0.062,0.198,0.1,0.409,0.1c0.149,0,0.273-0.014,0.373-0.037v0.932
					c-0.174,0.025-0.41,0.037-0.708,0.037c-0.46,0-0.809-0.074-1.031-0.236c-0.225-0.162-0.336-0.436-0.336-0.82v-2.559h-0.721
					v-0.809h0.721v-1.305h1.193V-8.704L84.367-8.704z M89.883-7.51c0.099,0,0.187,0.014,0.261,0.037v1.119
					c-0.124-0.025-0.273-0.037-0.436-0.037c-0.782,0-1.18,0.473-1.18,1.404v1.963h-1.205v-4.375h1.143v0.809h0.013
					c0.124-0.285,0.311-0.51,0.56-0.672C89.312-7.422,89.585-7.51,89.883-7.51L89.883-7.51z M93.375-9.051v0.994h-1.205v-0.994
					H93.375z M93.375-7.399v4.375h-1.205v-4.375H93.375z M97.861-7.51c1.267,0,1.912,0.424,1.912,1.242v2.312
					c0,0.422,0.051,0.732,0.15,0.932h-1.219c-0.049-0.137-0.074-0.273-0.086-0.422c-0.361,0.359-0.846,0.545-1.467,0.545
					c-0.459,0-0.82-0.111-1.081-0.348c-0.273-0.236-0.397-0.547-0.397-0.969c0-0.396,0.124-0.709,0.385-0.932
					c0.262-0.236,0.733-0.373,1.417-0.436c0.484-0.049,0.795-0.111,0.919-0.186c0.125-0.074,0.199-0.199,0.199-0.348
					c0-0.199-0.062-0.348-0.174-0.436c-0.125-0.1-0.311-0.148-0.597-0.148c-0.248,0-0.447,0.049-0.571,0.16
					c-0.125,0.1-0.211,0.273-0.225,0.498h-1.205c0.025-0.484,0.225-0.846,0.598-1.094C96.754-7.385,97.239-7.51,97.861-7.51z
					 M96.853-4.266c0,0.371,0.249,0.559,0.734,0.559c0.646,0,0.969-0.336,0.969-0.994v-0.459C98.457-5.063,98.22-5,97.835-4.95
					c-0.336,0.037-0.584,0.111-0.746,0.211C96.941-4.639,96.853-4.491,96.853-4.266z M104.732-7.51c0.559,0,0.956,0.137,1.217,0.424
					c0.249,0.285,0.373,0.732,0.373,1.342v2.721h-1.205v-2.473c0-0.361-0.062-0.635-0.174-0.809s-0.311-0.26-0.597-0.26
					c-0.323,0-0.56,0.1-0.708,0.297c-0.148,0.199-0.224,0.523-0.224,0.971v2.273h-1.205v-4.375h1.144v0.609h0.023
					C103.675-7.274,104.123-7.51,104.732-7.51z M65.802,2.879c0.646,0,1.144,0.174,1.517,0.521c0.372,0.348,0.56,0.82,0.56,1.416
					s-0.188,1.068-0.56,1.416c-0.373,0.35-0.87,0.523-1.517,0.523h-1.416v2.148h-1.33V2.865h2.746V2.879z M65.455,5.711
					c0.385,0,0.671-0.074,0.857-0.211s0.285-0.373,0.285-0.695c0-0.311-0.086-0.535-0.272-0.684s-0.472-0.225-0.857-0.225h-1.069
					v1.814H65.455z M72.649,4.42c0.1,0,0.187,0.012,0.261,0.037v1.117c-0.123-0.025-0.273-0.037-0.435-0.037
					c-0.782,0-1.181,0.473-1.181,1.404v1.963h-1.205V4.531h1.144v0.807h0.013c0.123-0.285,0.311-0.51,0.559-0.67
					C72.078,4.506,72.351,4.42,72.649,4.42z M76.775,4.42c0.41,0,0.782,0.098,1.093,0.285c0.323,0.186,0.571,0.473,0.759,0.832
					c0.186,0.361,0.272,0.783,0.272,1.256c0,0.049,0,0.123-0.013,0.223H75.73c0.014,0.348,0.1,0.621,0.273,0.82
					s0.436,0.285,0.796,0.285c0.224,0,0.423-0.049,0.608-0.16c0.187-0.113,0.299-0.25,0.348-0.398h1.057
					c-0.311,0.982-0.994,1.467-2.051,1.467c-0.396,0-0.77-0.088-1.105-0.262c-0.335-0.174-0.608-0.436-0.82-0.795
					c-0.198-0.359-0.298-0.77-0.298-1.242c0-0.447,0.1-0.846,0.311-1.219c0.212-0.359,0.485-0.633,0.82-0.818
					C76.017,4.506,76.376,4.42,76.775,4.42z M77.694,6.258c-0.062-0.322-0.161-0.559-0.311-0.709
					C77.234,5.4,77.01,5.326,76.737,5.326c-0.298,0-0.521,0.086-0.696,0.248c-0.174,0.162-0.272,0.398-0.297,0.684H77.694z
					 M82.913,4.42c0.584,0,1.044,0.123,1.366,0.359c0.336,0.236,0.51,0.584,0.56,1.043h-1.131c-0.013-0.211-0.087-0.359-0.224-0.447
					c-0.137-0.086-0.336-0.137-0.596-0.137c-0.225,0-0.398,0.039-0.498,0.1c-0.111,0.062-0.161,0.174-0.161,0.299
					c0,0.1,0.037,0.186,0.112,0.248c0.074,0.062,0.186,0.125,0.335,0.174c0.149,0.051,0.311,0.088,0.497,0.125
					c0.547,0.111,0.932,0.211,1.156,0.336c0.223,0.111,0.385,0.248,0.496,0.41c0.1,0.16,0.162,0.348,0.162,0.584
					c0,0.484-0.174,0.869-0.535,1.131C84.093,8.904,83.609,9.041,83,9.041c-0.646,0-1.143-0.137-1.504-0.41
					c-0.359-0.273-0.547-0.646-0.559-1.117h1.143c0,0.223,0.088,0.41,0.262,0.533C82.515,8.184,82.738,8.246,83,8.246
					c0.224,0,0.41-0.049,0.559-0.148c0.149-0.1,0.225-0.236,0.225-0.41c0-0.113-0.051-0.211-0.137-0.273
					c-0.088-0.074-0.225-0.137-0.398-0.199s-0.435-0.125-0.782-0.199c-0.286-0.062-0.534-0.137-0.759-0.223
					c-0.223-0.1-0.385-0.225-0.496-0.373c-0.112-0.15-0.174-0.348-0.174-0.572c0-0.285,0.074-0.533,0.211-0.758
					c0.137-0.211,0.348-0.373,0.633-0.484C82.142,4.469,82.49,4.42,82.913,4.42L82.913,4.42z M88.418,2.879v0.994h-1.206V2.879
					H88.418z M88.418,4.531v4.373h-1.206V4.531H88.418z M95.139,2.879v6.025h-1.144V8.346h-0.012c-0.262,0.447-0.696,0.67-1.33,0.67
					c-0.608,0-1.08-0.223-1.429-0.658c-0.349-0.434-0.522-0.994-0.522-1.678c0-0.658,0.174-1.205,0.535-1.627
					c0.359-0.422,0.82-0.633,1.404-0.633c0.261,0,0.51,0.049,0.745,0.16c0.235,0.113,0.41,0.273,0.547,0.484h0.013V2.865h1.192
					V2.879L95.139,2.879z M91.896,6.717c0,0.398,0.1,0.734,0.285,1.008c0.188,0.273,0.448,0.396,0.771,0.396
					c0.348,0,0.596-0.123,0.77-0.371c0.174-0.25,0.262-0.598,0.262-1.033c0-0.434-0.088-0.781-0.273-1.018
					c-0.187-0.236-0.436-0.361-0.771-0.361c-0.349,0-0.608,0.125-0.782,0.387C91.983,5.959,91.896,6.295,91.896,6.717z M99.587,4.42
					c0.41,0,0.783,0.098,1.094,0.285c0.322,0.186,0.571,0.473,0.758,0.832c0.186,0.361,0.273,0.783,0.273,1.256
					c0,0.049,0,0.123-0.013,0.223h-3.156c0.013,0.348,0.1,0.621,0.273,0.82s0.435,0.285,0.796,0.285c0.223,0,0.422-0.049,0.607-0.16
					c0.188-0.113,0.299-0.25,0.349-0.398h1.056c-0.311,0.982-0.994,1.467-2.05,1.467c-0.397,0-0.771-0.088-1.105-0.262
					c-0.336-0.174-0.608-0.436-0.82-0.795c-0.198-0.359-0.298-0.77-0.298-1.242c0-0.447,0.1-0.846,0.311-1.219
					c0.211-0.359,0.484-0.633,0.82-0.818C98.83,4.506,99.189,4.42,99.587,4.42L99.587,4.42z M100.507,6.258
					c-0.062-0.322-0.162-0.559-0.311-0.709c-0.149-0.148-0.373-0.223-0.646-0.223c-0.299,0-0.521,0.086-0.695,0.248
					c-0.175,0.162-0.273,0.398-0.299,0.684H100.507z M106.447,4.42c0.559,0,0.956,0.137,1.217,0.422
					c0.249,0.285,0.373,0.732,0.373,1.342v2.721h-1.205V6.432c0-0.359-0.062-0.633-0.174-0.807s-0.311-0.262-0.597-0.262
					c-0.323,0-0.56,0.1-0.708,0.299c-0.149,0.199-0.224,0.521-0.224,0.969v2.273h-1.206V4.531h1.144v0.609h0.024
					C105.402,4.654,105.849,4.42,106.447,4.42z M112.572,4.42c0.597,0,1.068,0.148,1.441,0.447c0.373,0.297,0.572,0.707,0.609,1.205
					h-1.182c-0.074-0.498-0.372-0.758-0.882-0.758c-0.311,0-0.56,0.123-0.745,0.385c-0.187,0.26-0.273,0.609-0.273,1.031
					c0,0.41,0.087,0.746,0.262,0.994c0.174,0.248,0.422,0.385,0.732,0.385c0.547,0,0.869-0.299,0.957-0.883h1.155
					c-0.075,0.584-0.298,1.02-0.671,1.33s-0.846,0.459-1.43,0.459c-0.646,0-1.18-0.211-1.59-0.621s-0.621-0.957-0.621-1.615
					c0-0.721,0.199-1.291,0.608-1.727C111.355,4.631,111.888,4.42,112.572,4.42z M117.617,4.531l0.994,2.994h0.012l0.957-2.994
					h1.242l-1.826,4.92c-0.124,0.348-0.311,0.596-0.534,0.758s-0.546,0.236-0.956,0.236c-0.174,0-0.423-0.012-0.759-0.037V9.414
					c0.212,0.025,0.423,0.037,0.634,0.037c0.174,0,0.299-0.049,0.398-0.162c0.086-0.1,0.137-0.234,0.137-0.396
					c0-0.088-0.014-0.188-0.051-0.273l-1.541-4.102h1.293V4.531L117.617,4.531z M65.07,16.348c0.695,0,1.255,0.211,1.652,0.633
					c0.41,0.424,0.609,0.982,0.609,1.666c0,0.695-0.212,1.254-0.621,1.664c-0.41,0.422-0.957,0.635-1.641,0.635
					c-0.696,0-1.242-0.211-1.652-0.635c-0.41-0.422-0.609-0.98-0.609-1.664c0-0.709,0.211-1.268,0.621-1.678
					S64.386,16.348,65.07,16.348z M64.013,18.658c0,0.447,0.088,0.783,0.273,1.031c0.187,0.236,0.447,0.361,0.783,0.361
					c0.36,0,0.621-0.125,0.795-0.373s0.262-0.584,0.262-1.02c0-0.447-0.088-0.795-0.273-1.043c-0.188-0.236-0.447-0.361-0.796-0.361
					c-0.335,0-0.597,0.125-0.782,0.361C64.101,17.852,64.013,18.199,64.013,18.658z M71.357,14.807c0.1,0,0.311,0.012,0.634,0.037
					v0.895c-0.161-0.012-0.298-0.025-0.435-0.025c-0.174,0-0.299,0.039-0.361,0.113c-0.062,0.074-0.099,0.211-0.099,0.396v0.248
					h0.832v0.809h-0.832v3.553H69.89v-3.564h-0.721v-0.809h0.721v-0.322c0-0.424,0.125-0.758,0.386-0.994
					C70.537,14.918,70.884,14.807,71.357,14.807L71.357,14.807z M79.359,15.154v1.305h0.883v0.809h-0.883v2.162
					c0,0.199,0.037,0.334,0.1,0.408c0.062,0.062,0.199,0.102,0.41,0.102c0.148,0,0.273-0.014,0.373-0.039v0.932
					c-0.174,0.025-0.41,0.039-0.709,0.039c-0.459,0-0.808-0.076-1.031-0.236c-0.224-0.162-0.336-0.436-0.336-0.82v-2.561h-0.721
					v-0.807h0.721v-1.305h1.193V15.154L79.359,15.154z M83.521,14.807v2.273h0.025c0.137-0.223,0.322-0.396,0.547-0.533
					c0.236-0.125,0.472-0.199,0.732-0.199c0.56,0,0.957,0.137,1.218,0.422c0.249,0.287,0.373,0.721,0.373,1.33v2.732h-1.205v-2.484
					c0-0.359-0.062-0.621-0.175-0.795c-0.111-0.174-0.311-0.262-0.596-0.262c-0.323,0-0.559,0.1-0.709,0.287
					c-0.148,0.186-0.223,0.508-0.223,0.955v2.299h-1.205v-6.037h1.217V14.807z M90.876,16.348c0.41,0,0.783,0.1,1.094,0.285
					c0.324,0.188,0.572,0.473,0.758,0.832c0.188,0.361,0.273,0.783,0.273,1.256c0,0.049,0,0.125-0.012,0.225h-3.156
					c0.013,0.348,0.1,0.621,0.273,0.818c0.174,0.199,0.435,0.287,0.795,0.287c0.224,0,0.422-0.051,0.609-0.162
					c0.186-0.111,0.298-0.248,0.348-0.398h1.057c-0.311,0.982-0.994,1.467-2.051,1.467c-0.397,0-0.771-0.086-1.105-0.26
					c-0.336-0.176-0.609-0.436-0.82-0.797c-0.199-0.359-0.299-0.77-0.299-1.242c0-0.447,0.1-0.844,0.311-1.217
					c0.212-0.361,0.485-0.635,0.82-0.82C90.119,16.434,90.48,16.348,90.876,16.348z M91.796,18.186
					c-0.062-0.322-0.161-0.559-0.311-0.707c-0.148-0.15-0.373-0.225-0.646-0.225c-0.298,0-0.521,0.088-0.695,0.25
					c-0.174,0.16-0.273,0.396-0.299,0.682H91.796z M65.778,26.586c0.708,0,1.292,0.199,1.776,0.596
					c0.484,0.398,0.759,0.92,0.833,1.578h-1.28c-0.049-0.297-0.198-0.547-0.447-0.758c-0.248-0.199-0.547-0.297-0.869-0.297
					c-0.521,0-0.92,0.186-1.205,0.559c-0.286,0.373-0.436,0.869-0.436,1.516c0,0.621,0.149,1.105,0.436,1.479
					c0.285,0.373,0.695,0.547,1.205,0.547c0.385,0,0.695-0.111,0.932-0.348s0.385-0.572,0.436-1.008h1.267
					c-0.062,0.771-0.348,1.367-0.819,1.814c-0.473,0.447-1.094,0.66-1.827,0.66c-0.882,0-1.603-0.287-2.149-0.871
					s-0.82-1.342-0.82-2.262c0-0.932,0.273-1.701,0.808-2.299C64.163,26.885,64.883,26.586,65.778,26.586L65.778,26.586z
					 M72.848,28.275c0.695,0,1.255,0.211,1.652,0.635c0.41,0.422,0.608,0.98,0.608,1.664c0,0.695-0.211,1.256-0.621,1.666
					c-0.41,0.422-0.957,0.633-1.64,0.633c-0.696,0-1.243-0.211-1.653-0.633c-0.41-0.424-0.608-0.982-0.608-1.666
					c0-0.707,0.212-1.268,0.621-1.678C71.63,28.486,72.177,28.275,72.848,28.275z M71.793,30.586c0,0.449,0.086,0.783,0.272,1.033
					c0.187,0.234,0.447,0.359,0.783,0.359c0.36,0,0.621-0.125,0.795-0.373s0.261-0.584,0.261-1.02c0-0.447-0.087-0.795-0.273-1.043
					c-0.186-0.236-0.447-0.359-0.795-0.359c-0.336,0-0.596,0.123-0.783,0.359C71.878,29.779,71.793,30.127,71.793,30.586
					L71.793,30.586z M78.613,28.389v2.471c0,0.336,0.051,0.598,0.162,0.783c0.111,0.188,0.311,0.273,0.609,0.273
					c0.335,0,0.57-0.1,0.707-0.297c0.15-0.199,0.212-0.51,0.212-0.945v-2.299h1.205v4.387h-1.144v-0.609H80.34
					c-0.298,0.484-0.745,0.721-1.342,0.721c-0.571,0-0.981-0.148-1.218-0.436c-0.248-0.285-0.373-0.732-0.373-1.342v-2.707H78.613z
					 M86.454,28.275c0.56,0,0.956,0.137,1.218,0.422c0.248,0.287,0.373,0.734,0.373,1.342v2.723h-1.205v-2.473
					c0-0.361-0.062-0.635-0.174-0.809c-0.112-0.174-0.311-0.26-0.598-0.26c-0.322,0-0.559,0.1-0.707,0.297
					c-0.149,0.199-0.225,0.521-0.225,0.971v2.273h-1.205v-4.373h1.144v0.607h0.024C85.41,28.512,85.857,28.275,86.454,28.275
					L86.454,28.275z M92.567,28.275c0.597,0,1.069,0.148,1.441,0.447c0.373,0.299,0.571,0.709,0.608,1.205h-1.18
					c-0.074-0.496-0.373-0.758-0.883-0.758c-0.311,0-0.559,0.125-0.745,0.385c-0.187,0.262-0.273,0.609-0.273,1.031
					c0,0.412,0.087,0.746,0.261,0.994c0.174,0.25,0.423,0.387,0.733,0.387c0.546,0,0.87-0.299,0.956-0.883h1.156
					c-0.074,0.584-0.299,1.02-0.671,1.33c-0.373,0.311-0.845,0.459-1.429,0.459c-0.646,0-1.181-0.211-1.591-0.621
					s-0.621-0.957-0.621-1.615c0-0.721,0.198-1.293,0.608-1.727C91.349,28.486,91.896,28.275,92.567,28.275L92.567,28.275z
					 M98.072,26.734v0.994h-1.205v-0.994H98.072z M98.072,28.389v4.373h-1.205v-4.373H98.072z M101.775,26.734v6.027h-1.206v-6.039
					h1.206V26.734z M110.236,28.275c0.696,0,1.256,0.211,1.652,0.635c0.41,0.422,0.609,0.98,0.609,1.664
					c0,0.695-0.211,1.256-0.621,1.666c-0.41,0.422-0.957,0.633-1.641,0.633c-0.695,0-1.242-0.211-1.652-0.633
					c-0.41-0.424-0.609-0.982-0.609-1.666c0-0.707,0.212-1.268,0.621-1.678C109.018,28.486,109.565,28.275,110.236,28.275z
					 M109.179,30.586c0,0.449,0.088,0.783,0.273,1.033c0.188,0.234,0.447,0.359,0.783,0.359c0.36,0,0.621-0.125,0.795-0.373
					s0.262-0.584,0.262-1.02c0-0.447-0.088-0.795-0.273-1.043c-0.187-0.236-0.447-0.359-0.795-0.359
					c-0.336,0-0.597,0.123-0.783,0.359C109.267,29.779,109.179,30.127,109.179,30.586L109.179,30.586z M116.523,26.734
					c0.1,0,0.311,0.014,0.634,0.039v0.893c-0.161-0.012-0.298-0.023-0.435-0.023c-0.174,0-0.299,0.037-0.36,0.111
					c-0.062,0.074-0.1,0.211-0.1,0.398V28.4h0.833v0.807h-0.833v3.555h-1.205v-3.566h-0.721v-0.807h0.721v-0.324
					c0-0.422,0.124-0.758,0.386-0.994C115.703,26.848,116.064,26.734,116.523,26.734L116.523,26.734z M124.525,27.084v1.305h0.883
					v0.807h-0.883v2.162c0,0.199,0.037,0.336,0.1,0.41c0.062,0.062,0.199,0.1,0.41,0.1c0.148,0,0.273-0.014,0.373-0.037v0.932
					c-0.174,0.025-0.41,0.037-0.709,0.037c-0.459,0-0.807-0.074-1.031-0.236c-0.223-0.162-0.335-0.436-0.335-0.82v-2.559h-0.721
					v-0.809h0.721V27.07h1.192V27.084L124.525,27.084z M128.701,26.734v2.275h0.023c0.138-0.225,0.324-0.398,0.547-0.535
					c0.236-0.125,0.473-0.199,0.733-0.199c0.56,0,0.957,0.137,1.218,0.422c0.248,0.287,0.373,0.721,0.373,1.33v2.734h-1.205v-2.486
					c0-0.359-0.062-0.621-0.174-0.795c-0.112-0.174-0.311-0.26-0.597-0.26c-0.323,0-0.56,0.1-0.708,0.285
					c-0.149,0.186-0.225,0.51-0.225,0.957v2.299h-1.205v-6.039h1.219V26.734z M136.043,28.275c0.41,0,0.782,0.1,1.094,0.287
					c0.323,0.186,0.571,0.471,0.758,0.832c0.187,0.359,0.273,0.783,0.273,1.254c0,0.051,0,0.125-0.013,0.225H135
					c0.013,0.348,0.1,0.621,0.273,0.82s0.436,0.285,0.795,0.285c0.225,0,0.423-0.049,0.609-0.162
					c0.186-0.111,0.298-0.248,0.348-0.396h1.057c-0.311,0.98-0.994,1.465-2.051,1.465c-0.397,0-0.77-0.086-1.105-0.26
					s-0.609-0.436-0.82-0.795c-0.199-0.361-0.299-0.771-0.299-1.242c0-0.447,0.1-0.846,0.312-1.219
					c0.211-0.359,0.484-0.633,0.819-0.82C135.286,28.363,135.658,28.275,136.043,28.275L136.043,28.275z M136.962,30.115
					c-0.062-0.324-0.161-0.561-0.311-0.709c-0.148-0.148-0.372-0.223-0.646-0.223c-0.298,0-0.522,0.086-0.696,0.248
					c-0.174,0.16-0.273,0.396-0.298,0.684H136.962z M67.58,38.664v1.117h-3.182v1.293h2.921v1.031h-2.921v1.467h3.256v1.117H63.07
					V38.65h4.51V38.664z M71.146,40.316v2.473c0,0.336,0.049,0.596,0.161,0.783c0.112,0.186,0.311,0.271,0.608,0.271
					c0.336,0,0.572-0.098,0.709-0.297c0.148-0.199,0.211-0.51,0.211-0.945v-2.299h1.205v4.387h-1.143V44.08h-0.025
					c-0.298,0.486-0.745,0.721-1.342,0.721c-0.571,0-0.981-0.148-1.218-0.434c-0.249-0.287-0.372-0.734-0.372-1.342v-2.709H71.146z
					 M79.023,40.203c0.1,0,0.187,0.014,0.262,0.039v1.117c-0.125-0.023-0.273-0.037-0.436-0.037c-0.783,0-1.18,0.473-1.18,1.404
					v1.963h-1.205v-4.373h1.143v0.807h0.012c0.125-0.285,0.312-0.51,0.56-0.67C78.452,40.291,78.725,40.203,79.023,40.203
					L79.023,40.203z M83.248,40.203c0.696,0,1.256,0.213,1.652,0.635c0.41,0.422,0.609,0.982,0.609,1.664
					c0,0.697-0.211,1.256-0.621,1.666c-0.41,0.422-0.957,0.633-1.641,0.633c-0.695,0-1.242-0.211-1.652-0.633
					s-0.609-0.982-0.609-1.666c0-0.707,0.212-1.266,0.622-1.676C82.031,40.416,82.578,40.203,83.248,40.203z M82.192,42.516
					c0,0.447,0.087,0.783,0.273,1.031c0.187,0.236,0.447,0.359,0.782,0.359c0.36,0,0.621-0.123,0.795-0.373
					c0.175-0.248,0.262-0.582,0.262-1.018c0-0.447-0.087-0.795-0.273-1.045c-0.187-0.234-0.447-0.359-0.795-0.359
					c-0.336,0-0.597,0.125-0.783,0.359C82.279,41.707,82.192,42.057,82.192,42.516z M90.268,40.203c0.608,0,1.081,0.213,1.441,0.635
					s0.547,0.994,0.547,1.715c0,0.658-0.174,1.205-0.522,1.627c-0.348,0.424-0.807,0.635-1.403,0.635
					c-0.571,0-1.007-0.225-1.305-0.658h-0.013v2.074h-1.205v-5.902h1.143v0.559h0.014C89.25,40.428,89.685,40.203,90.268,40.203
					L90.268,40.203z M88.963,42.516c0,0.422,0.087,0.77,0.273,1.018c0.187,0.25,0.435,0.373,0.782,0.373
					c0.349,0,0.609-0.123,0.783-0.373c0.174-0.248,0.262-0.582,0.262-1.018s-0.088-0.783-0.273-1.031
					c-0.187-0.248-0.447-0.373-0.783-0.373s-0.584,0.125-0.77,0.373C89.063,41.732,88.963,42.068,88.963,42.516z M96.518,40.203
					c0.41,0,0.783,0.1,1.094,0.287c0.323,0.186,0.571,0.473,0.758,0.832c0.187,0.361,0.273,0.783,0.273,1.256
					c0,0.049,0,0.123-0.013,0.223h-3.156c0.013,0.348,0.1,0.621,0.273,0.82s0.436,0.285,0.795,0.285c0.225,0,0.423-0.049,0.609-0.16
					c0.187-0.113,0.299-0.25,0.348-0.398h1.057c-0.311,0.982-0.994,1.467-2.051,1.467c-0.396,0-0.77-0.088-1.105-0.262
					s-0.609-0.434-0.82-0.795c-0.199-0.359-0.298-0.77-0.298-1.242c0-0.447,0.1-0.846,0.311-1.219
					c0.212-0.359,0.484-0.633,0.82-0.818C95.748,40.291,96.121,40.203,96.518,40.203z M97.438,42.043
					c-0.062-0.322-0.161-0.559-0.311-0.707c-0.149-0.15-0.373-0.225-0.646-0.225c-0.298,0-0.521,0.086-0.696,0.248
					c-0.174,0.162-0.273,0.398-0.298,0.684H97.438z M102.88,40.203c1.268,0,1.913,0.424,1.913,1.244v2.311
					c0,0.422,0.05,0.732,0.149,0.932h-1.218c-0.05-0.137-0.075-0.273-0.087-0.422c-0.36,0.359-0.846,0.547-1.467,0.547
					c-0.459,0-0.82-0.111-1.08-0.348c-0.273-0.236-0.398-0.547-0.398-0.971c0-0.396,0.125-0.707,0.385-0.932
					c0.262-0.236,0.734-0.373,1.417-0.434c0.485-0.051,0.796-0.113,0.919-0.188c0.125-0.074,0.199-0.199,0.199-0.348
					c0-0.199-0.062-0.348-0.174-0.436c-0.124-0.1-0.311-0.148-0.596-0.148c-0.249,0-0.447,0.049-0.572,0.162
					c-0.124,0.1-0.211,0.273-0.224,0.496h-1.205c0.024-0.484,0.224-0.844,0.597-1.094C101.775,40.328,102.259,40.203,102.88,40.203z
					 M101.874,43.447c0,0.373,0.249,0.559,0.733,0.559c0.646,0,0.969-0.334,0.969-0.994v-0.459c-0.1,0.1-0.336,0.162-0.721,0.211
					c-0.336,0.037-0.584,0.111-0.745,0.211C101.96,43.074,101.874,43.223,101.874,43.447z M109.739,40.203
					c0.56,0,0.957,0.139,1.218,0.424c0.248,0.285,0.373,0.732,0.373,1.342v2.721h-1.205v-2.473c0-0.359-0.062-0.633-0.174-0.807
					c-0.112-0.174-0.311-0.262-0.597-0.262c-0.323,0-0.56,0.1-0.708,0.299c-0.149,0.197-0.225,0.521-0.225,0.969v2.273h-1.205
					v-4.373h1.144v0.609h0.024C108.695,40.441,109.142,40.203,109.739,40.203L109.739,40.203z M119.058,38.664v3.777
					c0,0.447,0.1,0.77,0.298,0.98c0.199,0.211,0.51,0.311,0.944,0.311c0.46,0,0.783-0.1,0.969-0.311
					c0.188-0.211,0.273-0.533,0.273-0.98v-3.777h1.33v3.777c0,0.758-0.211,1.342-0.646,1.764c-0.435,0.422-1.068,0.633-1.926,0.633
					c-0.869,0-1.516-0.211-1.938-0.633c-0.423-0.422-0.635-1.006-0.635-1.764v-3.777H119.058z M127.929,40.203
					c0.56,0,0.957,0.139,1.219,0.424c0.248,0.285,0.372,0.732,0.372,1.342v2.721h-1.205v-2.473c0-0.359-0.062-0.633-0.174-0.807
					s-0.311-0.262-0.597-0.262c-0.323,0-0.559,0.1-0.708,0.299s-0.224,0.521-0.224,0.969v2.273h-1.205v-4.373h1.143v0.609h0.025
					C126.886,40.441,127.334,40.203,127.929,40.203L127.929,40.203z M133.185,38.664v0.994h-1.205v-0.994H133.185z M133.185,40.316
					v4.373h-1.205v-4.373H133.185z M137.771,40.203c0.695,0,1.254,0.213,1.652,0.635c0.41,0.422,0.608,0.982,0.608,1.664
					c0,0.697-0.211,1.256-0.621,1.666c-0.41,0.422-0.956,0.633-1.64,0.633c-0.696,0-1.242-0.211-1.652-0.633
					s-0.609-0.982-0.609-1.666c0-0.707,0.211-1.266,0.621-1.676C136.552,40.416,137.099,40.203,137.771,40.203z M136.714,42.516
					c0,0.447,0.087,0.783,0.273,1.031c0.187,0.236,0.447,0.359,0.783,0.359c0.359,0,0.621-0.123,0.795-0.373
					c0.174-0.248,0.261-0.582,0.261-1.018c0-0.447-0.087-0.795-0.273-1.045c-0.187-0.234-0.447-0.359-0.795-0.359
					c-0.335,0-0.597,0.125-0.782,0.359C136.801,41.707,136.714,42.057,136.714,42.516z M144.841,40.203
					c0.559,0,0.956,0.139,1.217,0.424c0.249,0.285,0.373,0.732,0.373,1.342v2.721h-1.205v-2.473c0-0.359-0.062-0.633-0.174-0.807
					s-0.311-0.262-0.597-0.262c-0.323,0-0.56,0.1-0.708,0.299c-0.149,0.197-0.225,0.521-0.225,0.969v2.273h-1.205v-4.373h1.144
					v0.609h0.024C143.796,40.441,144.244,40.203,144.841,40.203L144.841,40.203z"/>
			</g>
		</g>
	</g>
	<g id="layer2_2_">
	</g>
</g>
</svg>
