<svg xmlns="http://www.w3.org/2000/svg" viewBox="-23.954 -21.793 108.83 99.014">
	<g>
		<rect x="-23.954" y="-21.793" fill="#87162C" width="108.83" height="99.014"/>
		<path fill="#FFFFFF" d="M44.924,26.743h-5.633V2.64h5.633c2.968,0,5.639,1.167,5.639,4.42v15.308
		C50.562,25.578,47.891,26.743,44.924,26.743z M25.398,26.743V2.64h4.763v20.654h4.224v3.447h-8.987V26.743z M24.04,44.911
		c-11.757-5.688-24.825-5.783-24.825,6.31h-3.643C-5.01,34.268,11.798,24.896,30.694,34.025c27.64,13.358,32.301,4.131,32.301-6.944
		v-0.292l-5.776-0.046V2.64h8.939v3.447h-4.181v5.543h3.987v3.449h-3.987v8.215h4.372v5.288
		C66.349,48.453,52.362,58.654,24.04,44.911z M13.641,26.743V2.64h4.81v24.101h-4.81V26.743z M4.801,6.087v20.654H0.04V6.087h-3.254
		V2.64H8.008v3.447H4.801z M45.753,7.693c0-0.681-0.094-1.606-0.827-1.606h-0.819v17.207h0.819c0.734,0,0.827-0.925,0.827-1.555
		V7.693z"/>
	</g>
</svg>
