<?xml version="1.0" encoding="utf-8"?>
<!-- Generator: Adobe Illustrator 16.0.0, SVG Export Plug-In . SVG Version: 6.00 Build 0)  -->
<!DOCTYPE svg PUBLIC "-//W3C//DTD SVG 1.1//EN" "http://www.w3.org/Graphics/SVG/1.1/DTD/svg11.dtd">
<svg version="1.1" id="Layer_1" xmlns="http://www.w3.org/2000/svg" xmlns:xlink="http://www.w3.org/1999/xlink" x="0px" y="0px"
	 width="14.538px" height="13.776px" viewBox="0 0 14.538 13.776" enable-background="new 0 0 14.538 13.776" xml:space="preserve">
<g>
	<g>
		<path fill="#FBEA24" d="M9.531,8.446H3.876V6.509c0-0.066-0.039-0.125-0.1-0.15C3.716,6.335,3.647,6.349,3.6,6.394L0.047,9.948
			c-0.063,0.062-0.063,0.164,0,0.229L3.6,13.729c0.031,0.031,0.072,0.047,0.115,0.047c0.021,0,0.041-0.004,0.062-0.012
			c0.061-0.025,0.1-0.084,0.1-0.148v-1.939h5.654c0.09,0,0.162-0.072,0.162-0.16V8.608C9.693,8.519,9.621,8.446,9.531,8.446z"/>
	</g>
	<g>
		<path fill="#FBEA24" d="M14.49,3.601l-3.553-3.553c-0.047-0.047-0.115-0.061-0.176-0.035s-0.1,0.084-0.1,0.148v1.939H5.006
			c-0.089,0-0.161,0.072-0.161,0.162v2.906c0,0.09,0.072,0.162,0.161,0.162h5.655v1.938c0,0.066,0.039,0.125,0.1,0.15
			c0.02,0.008,0.041,0.012,0.061,0.012c0.043,0,0.084-0.016,0.115-0.047l3.553-3.555C14.554,3.767,14.554,3.665,14.49,3.601z"/>
	</g>
</g>
</svg>
