<?xml version="1.0" encoding="utf-8"?>
<!-- Generator: Adobe Illustrator 21.1.0, SVG Export Plug-In . SVG Version: 6.00 Build 0)  -->
<svg version="1.1" id="Layer_1" xmlns="http://www.w3.org/2000/svg" xmlns:xlink="http://www.w3.org/1999/xlink" x="0px" y="0px"
	 viewBox="0 0 160 210" style="enable-background:new 0 0 160 210;" xml:space="preserve">
<style type="text/css">
	.st0{fill:#0092FF;}
	.st1{fill:#1791FF;}
</style>
<g id="Public">
	<g id="Index" transform="translate(-130.000000, -30.000000)">
		<g id="Header" transform="translate(130.000000, 30.000000)">
			<g id="Logo">
				<path id="Fill-1" class="st1" d="M117.5,172.4c0-20.7-16.8-37.6-37.5-37.6c-20.7,0-37.5,16.9-37.5,37.6S59.3,210,80,210
					C100.7,210,117.5,193.1,117.5,172.4"/>
				<path id="EU2017.ee" class="st1" d="M16.5,112.4v5.8H0V91.8h16.3v5.8H6v4.4h9.4v5.7H6v4.7H16.5z M19.3,109.7V91.8h6v17.3
					c0,2,0.9,3.7,4.1,3.7c3.2,0,4.1-1.7,4.1-3.7V91.8h6v17.8c0,5.6-4.4,9-10.1,9S19.3,115.3,19.3,109.7z M42.4,113.8l8.8-9.2
					c1.5-1.6,2.7-3.1,2.7-4.7c0-1.7-1.1-2.8-2.8-2.8c-1.8,0-3.2,1.2-3.9,2.9l-5.1-3c1.7-3.9,5.2-5.8,8.9-5.8c4.7,0,8.9,3.1,8.9,8.4
					c0,3.2-1.7,5.9-4.1,8.3l-4.4,4.4h8.8v5.8H42.4V113.8z M62,105c0-8.1,3.9-13.7,10.7-13.7c6.8,0,10.7,5.6,10.7,13.7
					c0,8.1-3.9,13.7-10.7,13.7C65.9,118.7,62,113.1,62,105z M77.4,105c0-5.1-1.5-7.8-4.7-7.8c-3.2,0-4.7,2.7-4.7,7.8
					c0,5.1,1.5,7.8,4.7,7.8C75.9,112.8,77.4,110.1,77.4,105z M114.8,91.8v5l-8.6,21.3h-6.4l8.3-20.6h-9.7v-5.8H114.8z M112.2,115.1
					c0-2,1.6-3.6,3.6-3.6c2,0,3.6,1.6,3.6,3.6c0,2-1.6,3.6-3.6,3.6C113.9,118.7,112.2,117.1,112.2,115.1z M140.3,112.4v5.8h-16.5
					V91.8h16.3v5.8h-10.3v4.4h9.4v5.7h-9.4v4.7H140.3z M160,112.4v5.8h-16.5V91.8h16.3v5.8h-10.3v4.4h9.4v5.7h-9.4v4.7H160z
					 M90.2,91.8h5.3v26.4h-6v-20l-3.9,1.1L84,94.1L90.2,91.8z"/>
				<path id="Fill-3" class="st1" d="M42.5,37.6c0,20.7,16.8,37.6,37.5,37.6c20.7,0,37.5-16.9,37.5-37.6C117.5,16.9,100.7,0,80,0
					C59.3,0,42.5,16.9,42.5,37.6"/>
			</g>
		</g>
	</g>
</g>
</svg>
