<?xml version="1.0" encoding="utf-8"?>
<!-- Generator: Adobe Illustrator 16.0.0, SVG Export Plug-In . SVG Version: 6.00 Build 0)  -->
<!DOCTYPE svg PUBLIC "-//W3C//DTD SVG 1.1//EN" "http://www.w3.org/Graphics/SVG/1.1/DTD/svg11.dtd">
<svg version="1.1" id="Layer_1" xmlns="http://www.w3.org/2000/svg" xmlns:xlink="http://www.w3.org/1999/xlink" x="0px" y="0px"
	 width="70.969px" height="58.164px" viewBox="0 0 70.969 58.164" enable-background="new 0 0 70.969 58.164" xml:space="preserve">
<g>
	<path fill="#FFFFFF" d="M38.017,39.479l-3.395-3.393l1.963-1.961c1.37-1.372,2.899-2.003,4.459-0.444
		c0.635,0.634,0.91,1.246,0.943,1.829l2.9-2.898c-0.379-0.67-0.896-1.301-1.498-1.902c-2.201-2.202-5.629-2.181-8.621,0.81
		l-2.355,2.358l-1.929-1.93l5.917-5.917l-2.509-2.51l-8.44,8.441l10.043,10.041L38.017,39.479z"/>
	<polygon fill="#FFFFFF" points="41.423,21.009 48.954,13.478 46.445,10.967 36.402,21.01 46.445,31.053 48.955,28.542 	"/>
	
		<rect x="52.201" y="19.235" transform="matrix(0.7072 -0.707 0.707 0.7072 0.9503 44.3151)" fill="#FFFFFF" width="3.549" height="3.55"/>
	
		<rect x="47.18" y="19.235" transform="matrix(0.7072 -0.707 0.707 0.7072 -0.5193 40.7656)" fill="#FFFFFF" width="3.55" height="3.55"/>
	
		<rect x="33.701" y="5.756" transform="matrix(-0.7068 -0.7075 0.7075 -0.7068 55.2216 37.9508)" fill="#FFFFFF" width="3.55" height="3.55"/>
	
		<rect x="33.701" y="0.735" transform="matrix(-0.7071 -0.7071 0.7071 -0.7071 58.7859 29.3695)" fill="#FFFFFF" width="3.549" height="3.549"/>
	<g>
		<path fill="#FFFFFF" d="M21.479,16.134c1.045,1.312,0.113,2.423-0.983,3.521l-1.164,1.164l-2.339-2.338l-2.51,2.51l9.713,9.714
			l3.717-3.717c1.288-1.288,2.578-2.577,3.115-4.32c0.555-1.685,0.15-3.313-0.979-4.445c-1.619-1.618-4.1-1.437-6.102,0.152
			c1.366-1.97,1.528-3.751-0.091-5.371c-0.252-0.252-0.511-0.447-0.773-0.612l-2.981,2.982
			C20.64,15.405,21.052,15.598,21.479,16.134z M27.112,20.695c1.394,1.394,0.223,3.18-1.066,4.47l-1.185,1.185l-3.323-3.324
			l1.354-1.352C24.202,20.363,25.776,19.359,27.112,20.695z"/>
		<path fill="#FFFFFF" d="M29.206,6.269l-3.51,3.509c0.264,1.606,1.052,3.192,2.518,4.657c4.262,4.262,9.065,3.393,13.039-0.581
			c1.312-1.312,2.629-3.047,3.407-4.707l-4.146-4.145l-2.528,2.529l2.579,2.578c-0.354,0.66-0.998,1.395-1.523,1.92
			c-2.512,2.513-5.66,1.938-8.107-0.507C29.308,9.893,28.783,8.037,29.206,6.269z"/>
	</g>
	<path fill="#FFFFFF" d="M1.191,52.553c0.151,1.263,0.963,2.05,2.112,2.05c0.693,0,1.33-0.205,1.996-0.614v1.143
		c-0.733,0.322-1.33,0.458-2.047,0.458C1.261,55.589,0,54.275,0,52.176c0-1.981,1.204-3.279,2.993-3.279
		c2.158,0,2.768,1.814,2.768,3.656H1.191z M1.204,51.631H4.58c-0.109-0.944-0.542-1.787-1.625-1.787
		C2.032,49.844,1.354,50.521,1.204,51.631z"/>
	<path fill="#FFFFFF" d="M12.471,49.084v3.998c0,0.785,0.055,1.561,0.097,2.347h-1.113l-0.053-0.993
		c-0.502,0.721-1.248,1.09-2.142,1.09c-1.924,0-2.36-1.438-2.36-3.078v-3.363h1.193v2.956c0,0.933,0.027,1.369,0.15,1.679
		c0.215,0.567,0.662,0.867,1.248,0.867c1.08,0,1.8-0.906,1.8-2.287v-3.215H12.471z"/>
	<path fill="#FFFFFF" d="M14.2,47.175c0.948-0.392,1.49-0.514,2.304-0.514c1.693,0,2.833,0.961,2.833,2.368
		c0,1.099-0.596,2.115-2.25,3.768c-0.717,0.734-1.301,1.236-1.885,1.667c0.301-0.066,0.61-0.066,0.925-0.066h3.401v1.031h-5.531
		v-1.315c1.205-1.031,4.012-3.416,4.012-5.041c0-0.816-0.719-1.412-1.697-1.412c-0.633,0-1.271,0.221-1.976,0.625L14.2,47.175z"/>
	<path fill="#FFFFFF" d="M23.656,46.616c2.507,0,2.956,2.581,2.956,4.542c0,1.953-0.49,4.431-2.956,4.431
		c-2.468,0-2.942-2.616-2.942-4.554C20.714,49.099,21.229,46.616,23.656,46.616z M23.642,47.622c-1.069,0-1.667,1.259-1.667,3.456
		c0,1.138,0.122,3.508,1.708,3.508c1.1,0,1.669-1.203,1.669-3.48C25.352,48.871,24.755,47.622,23.642,47.622z"/>
	<path fill="#FFFFFF" d="M31.079,46.754v8.675h-1.232v-5.261c0-1.044,0.012-1.559,0.012-2.061c-0.354,0.465-0.922,0.856-1.354,1.238
		l-0.693-0.817l2.131-1.774H31.079z"/>
	<path fill="#FFFFFF" d="M37.378,50.781c1.068,0.352,1.895,1.136,1.895,2.33c0,1.611-1.408,2.478-2.887,2.478
		c-1.419,0-3.115-0.745-3.115-2.396c0-1.221,0.826-1.98,1.898-2.375c-0.994-0.203-1.694-1.043-1.694-2.086
		c0-1.447,1.475-2.1,2.75-2.1c1.222,0,2.767,0.624,2.767,2.059C38.991,49.708,38.258,50.4,37.378,50.781z M36.062,51.334
		c-0.676,0.342-1.448,0.882-1.448,1.711c0,0.959,0.878,1.529,1.763,1.529c0.799,0,1.623-0.486,1.623-1.355
		C37.999,52.133,36.916,51.66,36.062,51.334z M36.525,50.4c0.556-0.365,1.191-0.906,1.191-1.641c0-0.785-0.801-1.193-1.506-1.193
		c-0.677,0-1.476,0.42-1.476,1.193C34.735,49.599,35.844,50.115,36.525,50.4z"/>
	<path fill="#FFFFFF" d="M42.507,46.065v3.374c0,0.242-0.014,0.485-0.027,0.729c0.312-0.718,1.18-1.204,2.18-1.204
		c1.656,0,2.742,1.259,2.742,3.226c0,2.031-1.103,3.336-2.752,3.336c-0.99,0-1.762-0.436-2.156-1.183v1.086h-1.166v-9.363H42.507z
		 M44.405,49.967c-1.07,0-1.871,0.975-1.871,2.289c0,1.285,0.801,2.262,1.843,2.262c1.029,0,1.773-0.96,1.773-2.272
		C46.15,50.887,45.433,49.967,44.405,49.967z"/>
	<path fill="#FFFFFF" d="M54.001,49.057v5.258c0,2.318-0.396,3.85-3.105,3.85c-0.85,0-1.557-0.121-2.411-0.42l0.106-1.148
		c0.83,0.392,1.521,0.579,2.279,0.579c0.866,0,1.491-0.353,1.788-0.96c0.271-0.569,0.192-1.222,0.23-1.83
		c-0.476,0.694-1.202,1.055-2.113,1.055c-1.679,0-2.808-1.257-2.808-3.158c0-1.964,1.139-3.317,2.779-3.317
		c0.977,0,1.805,0.476,2.142,1.204c0-0.067,0.013-0.122,0.013-0.148l-0.013-0.176v-0.787H54.001z M51.019,49.967
		c-1.055,0-1.802,0.963-1.802,2.305c0,1.27,0.718,2.164,1.761,2.164c1.101,0,1.856-0.918,1.856-2.22
		C52.834,50.941,52.05,49.967,51.019,49.967z"/>
	<path fill="#FFFFFF" d="M59.474,46.065v3.374c0,0.242-0.014,0.485-0.027,0.729c0.312-0.718,1.18-1.204,2.181-1.204
		c1.655,0,2.741,1.259,2.741,3.226c0,2.031-1.102,3.336-2.751,3.336c-0.991,0-1.763-0.436-2.157-1.183v1.086h-1.166v-9.363H59.474z
		 M61.371,49.967c-1.069,0-1.87,0.975-1.87,2.289c0,1.285,0.801,2.262,1.844,2.262c1.027,0,1.773-0.96,1.773-2.272
		C63.118,50.887,62.399,49.967,61.371,49.967z"/>
	<path fill="#FFFFFF" d="M70.969,49.057v5.258c0,2.318-0.396,3.85-3.106,3.85c-0.85,0-1.557-0.121-2.41-0.42l0.107-1.148
		c0.828,0.392,1.521,0.579,2.277,0.579c0.867,0,1.49-0.353,1.789-0.96c0.271-0.569,0.191-1.222,0.23-1.83
		c-0.476,0.694-1.203,1.055-2.114,1.055c-1.679,0-2.808-1.257-2.808-3.158c0-1.964,1.139-3.317,2.779-3.317
		c0.977,0,1.805,0.476,2.143,1.204c0-0.067,0.014-0.122,0.014-0.148l-0.014-0.176v-0.787H70.969z M67.985,49.967
		c-1.055,0-1.801,0.963-1.801,2.305c0,1.27,0.717,2.164,1.76,2.164c1.101,0,1.857-0.918,1.857-2.22
		C69.802,50.941,69.017,49.967,67.985,49.967z"/>
	<path fill="#FFFFFF" d="M56.155,53.749l0.986,0.987l-0.979,0.978l-0.986-0.986L56.155,53.749z"/>
</g>
</svg>
