<?xml version="1.0" encoding="UTF-8" standalone="no"?>
<!-- Created with Inkscape (http://www.inkscape.org/) -->

<svg
   xmlns:dc="http://purl.org/dc/elements/1.1/"
   xmlns:cc="http://creativecommons.org/ns#"
   xmlns:rdf="http://www.w3.org/1999/02/22-rdf-syntax-ns#"
   xmlns:svg="http://www.w3.org/2000/svg"
   xmlns="http://www.w3.org/2000/svg"
   xmlns:sodipodi="http://sodipodi.sourceforge.net/DTD/sodipodi-0.dtd"
   xmlns:inkscape="http://www.inkscape.org/namespaces/inkscape"
   width="102.48216"
   height="136.02191"
   id="svg2"
   version="1.1"
   inkscape:version="0.48.5 r10040"
   sodipodi:docname="filetype.svg">
  <defs
     id="defs4" />
  <sodipodi:namedview
     id="base"
     pagecolor="#ffffff"
     bordercolor="#666666"
     borderopacity="1.0"
     inkscape:pageopacity="0.0"
     inkscape:pageshadow="2"
     inkscape:zoom="1.979899"
     inkscape:cx="-15.860958"
     inkscape:cy="106.2157"
     inkscape:document-units="px"
     inkscape:current-layer="layer1"
     showgrid="false"
     fit-margin-top="5"
     fit-margin-left="5"
     fit-margin-right="5"
     fit-margin-bottom="5"
     inkscape:window-width="1840"
     inkscape:window-height="1051"
     inkscape:window-x="1271"
     inkscape:window-y="-9"
     inkscape:window-maximized="1" />
  <metadata
     id="metadata7">
    <rdf:RDF>
      <cc:Work
         rdf:about="">
        <dc:format>image/svg+xml</dc:format>
        <dc:type
           rdf:resource="http://purl.org/dc/dcmitype/StillImage" />
        <dc:title />
      </cc:Work>
    </rdf:RDF>
  </metadata>
  <g
     inkscape:label="Layer 1"
     inkscape:groupmode="layer"
     id="layer1"
     transform="translate(-126.73743,-259.54208)">
    <path
       style="fill:#a9bbd6;fill-opacity:1"
       d="m 131.73745,327.56396 0,-63 36.76788,0 c 0,0 18.36068,-0.0829 31.42097,0.074 0.99037,0.0119 9.5741,6.6501 13.79331,10.63952 3.88798,3.67623 10.50172,10.93478 10.49998,12.14209 -0.0334,23.12947 -0.0893,50.94721 -0.0893,50.94721 l -0.17856,52.01864 -45.21429,0.17857 -47.00001,0 z m 85.50001,12 -0.34183,-44.16832 -10.90563,-0.21044 -11.75254,-0.12119 -0.5,-11.5 -0.24746,-11.56313 -27.75254,0.0631 -27.50001,0 -0.25981,54.5 c -0.1429,29.975 -0.0425,55.78202 0.22307,56.47592 0.37973,0.9921 8.87396,0.49145 39.75983,0.28571 l 39.27692,-0.26163 z m -2.31354,-52.1831 c 0.68016,-1.10052 -13.06791,-13.91878 -13.95996,-13.02673 -0.88636,0.88637 -0.96127,12.53504 -0.20437,13.36839 0.70729,0.77873 13.55531,0.64373 14.16431,-0.34176 z"
       id="path3002"
       inkscape:connector-curvature="0"
       sodipodi:nodetypes="cccsascccccccccccccscscccsscc" />
  </g>
</svg>
