<?xml version="1.0" encoding="utf-8"?>
<!-- Generator: Adobe Illustrator 16.0.0, SVG Export Plug-In . SVG Version: 6.00 Build 0)  -->
<!DOCTYPE svg PUBLIC "-//W3C//DTD SVG 1.1//EN" "http://www.w3.org/Graphics/SVG/1.1/DTD/svg11.dtd">
<svg version="1.1" id="Layer_1" xmlns="http://www.w3.org/2000/svg" xmlns:xlink="http://www.w3.org/1999/xlink" x="0px" y="0px"
	 width="14.537px" height="13.776px" viewBox="0 0 14.537 13.776" enable-background="new 0 0 14.537 13.776" xml:space="preserve">
<g>
	<g>
		<path fill="#0D7DC2" d="M9.53,8.446H3.876V6.508c0-0.065-0.039-0.124-0.1-0.149C3.716,6.334,3.647,6.348,3.6,6.394L0.047,9.947
			c-0.063,0.063-0.063,0.165,0,0.229L3.6,13.729c0.031,0.03,0.072,0.047,0.115,0.047c0.021,0,0.041-0.004,0.062-0.013
			c0.061-0.024,0.1-0.083,0.1-0.148v-1.938H9.53c0.09,0,0.162-0.072,0.162-0.161V8.607C9.692,8.519,9.62,8.446,9.53,8.446z"/>
	</g>
	<g>
		<path fill="#0D7DC2" d="M14.489,3.601l-3.553-3.553c-0.047-0.047-0.115-0.061-0.176-0.036c-0.061,0.025-0.1,0.085-0.1,0.149V2.1
			H5.006c-0.089,0-0.161,0.072-0.161,0.162v2.907c0,0.089,0.072,0.161,0.161,0.161h5.654v1.938c0,0.065,0.039,0.124,0.1,0.149
			c0.02,0.008,0.041,0.012,0.062,0.012c0.042,0,0.083-0.016,0.114-0.047l3.553-3.554C14.553,3.767,14.553,3.664,14.489,3.601z"/>
	</g>
</g>
</svg>
