<?xml version="1.0" encoding="utf-8"?>
<!-- Generator: Adobe Illustrator 16.0.0, SVG Export Plug-In . SVG Version: 6.00 Build 0)  -->
<!DOCTYPE svg PUBLIC "-//W3C//DTD SVG 1.1//EN" "http://www.w3.org/Graphics/SVG/1.1/DTD/svg11.dtd">
<svg version="1.1" id="Layer_1" xmlns="http://www.w3.org/2000/svg" xmlns:xlink="http://www.w3.org/1999/xlink" x="0px" y="0px"
	 width="60.667px" height="62px" viewBox="0 0 60.667 62" enable-background="new 0 0 60.667 62" xml:space="preserve">
<g id="g895_1_" transform="translate(0.002,9.1)">
	<g id="layer1_1_">
		<g id="g1155_1_" transform="translate(-0.4,0.9)">
			<path id="path1132_1_" fill="#E62832" d="M7.966,6.428c0.447,0.434,1.093,0.645,1.926,0.645c0.596,0,1.117-0.148,1.553-0.447
				c0.435-0.297,0.695-0.621,0.795-0.955h2.622c-0.423,1.305-1.069,2.236-1.927,2.795c-0.869,0.559-1.912,0.846-3.143,0.846
				c-0.857,0-1.628-0.137-2.312-0.41C6.798,8.627,6.214,8.24,5.742,7.732C5.269,7.223,4.896,6.625,4.636,5.93
				C4.375,5.234,4.251,4.463,4.251,3.619c0-0.809,0.137-1.566,0.397-2.273C4.91,0.648,5.294,0.041,5.779-0.469
				s1.068-0.92,1.752-1.205C8.214-1.973,8.96-2.109,9.793-2.109c0.92,0,1.727,0.174,2.41,0.535c0.684,0.359,1.255,0.832,1.689,1.441
				c0.436,0.596,0.759,1.291,0.957,2.062c0.199,0.77,0.262,1.578,0.211,2.41H7.232C7.27,5.297,7.519,5.992,7.966,6.428z
				 M11.334,0.711c-0.361-0.396-0.895-0.584-1.629-0.584c-0.472,0-0.869,0.074-1.18,0.236S7.953,0.725,7.767,0.959
				C7.581,1.195,7.444,1.445,7.369,1.717c-0.074,0.262-0.124,0.51-0.137,0.709h4.847C11.942,1.68,11.693,1.109,11.334,0.711z
				 M12.041,29.699v-1.516h-0.062c-0.372,0.635-0.87,1.082-1.466,1.367c-0.597,0.285-1.219,0.422-1.852,0.422
				c-0.795,0-1.454-0.1-1.963-0.311c-0.51-0.211-0.92-0.51-1.205-0.895c-0.299-0.385-0.498-0.857-0.622-1.404
				s-0.174-1.168-0.174-1.838v-6.674h2.981v6.127c0,0.895,0.138,1.564,0.424,2c0.285,0.436,0.782,0.658,1.49,0.658
				c0.808,0,1.404-0.236,1.765-0.721s0.546-1.279,0.546-2.385V18.84h2.982v10.859H12.041L12.041,29.699z"/>
			<path id="path1134_1_" fill="#FFFFFF" d="M25.896-2.357c0.223-0.721,0.559-1.355,1.006-1.889
				c0.447-0.535,1.006-0.957,1.689-1.256c0.684-0.297,1.454-0.447,2.336-0.447c0.672,0,1.318,0.1,1.926,0.311
				c0.609,0.211,1.143,0.51,1.604,0.908c0.459,0.396,0.832,0.869,1.105,1.453c0.273,0.572,0.41,1.217,0.41,1.926
				c0,0.746-0.125,1.379-0.359,1.914c-0.236,0.533-0.561,1.006-0.945,1.416c-0.398,0.41-0.832,0.783-1.33,1.119
				c-0.496,0.334-0.994,0.67-1.502,0.994c-0.51,0.322-0.994,0.682-1.467,1.055c-0.473,0.373-0.895,0.82-1.255,1.318h6.947v2.559
				H25.274c0-0.857,0.124-1.59,0.373-2.225c0.249-0.633,0.571-1.191,0.993-1.689c0.423-0.496,0.908-0.957,1.479-1.379
				s1.168-0.846,1.789-1.279c0.323-0.225,0.66-0.447,1.031-0.684c0.361-0.236,0.697-0.484,0.994-0.771
				c0.299-0.285,0.547-0.596,0.758-0.943c0.199-0.348,0.299-0.746,0.299-1.193c0-0.707-0.211-1.268-0.621-1.664
				c-0.41-0.398-0.945-0.598-1.59-0.598c-0.436,0-0.795,0.1-1.107,0.311c-0.298,0.199-0.546,0.473-0.72,0.797
				c-0.188,0.322-0.312,0.695-0.387,1.092c-0.074,0.398-0.111,0.797-0.111,1.182h-2.857C25.572-0.867,25.671-1.637,25.896-2.357z
				 M46.572-1.984c0.285-0.971,0.67-1.752,1.168-2.336c0.484-0.584,1.055-1.008,1.715-1.256c0.645-0.248,1.342-0.373,2.062-0.373
				c0.744,0,1.441,0.125,2.086,0.373c0.646,0.248,1.23,0.672,1.729,1.256c0.496,0.584,0.895,1.365,1.18,2.336
				c0.285,0.969,0.436,2.174,0.436,3.604c0,1.465-0.15,2.695-0.436,3.689c-0.285,0.982-0.684,1.777-1.18,2.361
				c-0.498,0.584-1.068,1.006-1.729,1.254c-0.645,0.25-1.342,0.373-2.086,0.373c-0.734,0-1.418-0.123-2.062-0.373
				c-0.646-0.248-1.219-0.67-1.715-1.254c-0.484-0.584-0.883-1.379-1.168-2.361c-0.287-0.982-0.436-2.211-0.436-3.689
				C46.137,0.189,46.285-1.016,46.572-1.984L46.572-1.984z M49.168,3.135c0.025,0.596,0.113,1.168,0.262,1.727
				s0.385,1.031,0.709,1.416c0.322,0.398,0.781,0.584,1.391,0.584c0.621,0,1.094-0.199,1.416-0.584
				c0.324-0.396,0.572-0.869,0.709-1.416c0.148-0.547,0.236-1.131,0.26-1.727c0.025-0.598,0.039-1.105,0.039-1.529
				c0-0.248,0-0.559-0.014-0.92c-0.012-0.359-0.037-0.721-0.086-1.105c-0.051-0.373-0.125-0.758-0.211-1.117
				c-0.088-0.373-0.225-0.709-0.41-0.994c-0.188-0.299-0.41-0.535-0.697-0.709c-0.285-0.186-0.621-0.273-1.031-0.273
				S50.76-3.426,50.486-3.24c-0.273,0.188-0.498,0.422-0.672,0.709c-0.174,0.297-0.311,0.621-0.41,0.994s-0.174,0.744-0.211,1.117
				s-0.062,0.746-0.074,1.105c-0.014,0.361-0.014,0.66-0.014,0.92C49.119,2.041,49.131,2.537,49.168,3.135z M30.443,29.699V20.17
				h-3.689v-2.25c0.521,0.014,1.019-0.023,1.503-0.111c0.484-0.086,0.919-0.248,1.305-0.484s0.708-0.535,0.982-0.92
				c0.262-0.373,0.436-0.844,0.521-1.404h2.373v14.699H30.443z M47.043,16.977c0.299-0.51,0.672-0.92,1.145-1.256
				c0.471-0.336,0.994-0.584,1.59-0.758c0.584-0.174,1.18-0.248,1.789-0.248c0.908,0,1.678,0.137,2.311,0.422
				c0.635,0.287,1.145,0.621,1.518,1.02c0.385,0.396,0.658,0.82,0.832,1.279c0.174,0.461,0.248,0.869,0.248,1.23
				c0,0.732-0.174,1.367-0.535,1.914c-0.359,0.547-0.895,0.932-1.602,1.18v0.037c0.883,0.199,1.564,0.609,2.037,1.256
				c0.473,0.633,0.709,1.416,0.709,2.336c0,0.783-0.162,1.465-0.473,2.037s-0.732,1.043-1.256,1.43
				c-0.521,0.373-1.105,0.658-1.764,0.844c-0.658,0.188-1.33,0.287-2.014,0.287c-0.707,0-1.402-0.088-2.062-0.262
				c-0.67-0.174-1.254-0.447-1.789-0.832c-0.521-0.373-0.943-0.857-1.254-1.43S46,26.209,46,25.4c0-0.932,0.236-1.727,0.721-2.348
				c0.484-0.635,1.168-1.057,2.051-1.256V21.76c-0.709-0.199-1.256-0.572-1.615-1.117c-0.361-0.547-0.547-1.182-0.547-1.914
				C46.596,18.07,46.746,17.486,47.043,16.977L47.043,16.977z M49.182,26.283c0.137,0.311,0.322,0.57,0.559,0.783
				c0.236,0.211,0.51,0.385,0.832,0.508c0.324,0.125,0.658,0.176,1.008,0.176c0.359,0,0.695-0.062,0.992-0.176
				c0.299-0.123,0.572-0.285,0.797-0.508c0.234-0.213,0.408-0.484,0.533-0.783c0.125-0.311,0.188-0.646,0.188-1.008
				c0-0.348-0.062-0.67-0.199-0.955c-0.137-0.287-0.311-0.535-0.547-0.746s-0.498-0.373-0.795-0.484
				c-0.299-0.111-0.621-0.174-0.982-0.174c-0.732,0-1.342,0.199-1.852,0.596c-0.51,0.398-0.758,0.982-0.758,1.727
				C48.971,25.625,49.045,25.973,49.182,26.283L49.182,26.283z M49.977,20.43c0.447,0.324,0.969,0.498,1.578,0.498
				c0.633,0,1.154-0.162,1.578-0.498c0.422-0.322,0.633-0.807,0.633-1.441c0-0.197-0.025-0.41-0.086-0.645
				c-0.062-0.236-0.162-0.447-0.324-0.66c-0.162-0.211-0.385-0.385-0.67-0.521c-0.287-0.137-0.66-0.211-1.119-0.211
				c-0.299,0-0.572,0.049-0.846,0.137c-0.271,0.088-0.508,0.225-0.721,0.385c-0.211,0.174-0.371,0.373-0.496,0.635
				c-0.125,0.248-0.174,0.547-0.174,0.881C49.305,19.623,49.529,20.107,49.977,20.43L49.977,20.43z"/>
			<path id="path1136_1_" fill="#E62832" d="M25.771,40.783c0.037-0.695,0.211-1.279,0.521-1.74
				c0.311-0.459,0.696-0.832,1.181-1.117c0.473-0.287,1.007-0.484,1.603-0.598c0.598-0.123,1.193-0.174,1.79-0.174
				c0.547,0,1.094,0.039,1.652,0.113c0.561,0.074,1.07,0.223,1.529,0.447c0.459,0.223,0.844,0.533,1.131,0.932
				c0.299,0.396,0.434,0.932,0.434,1.59v5.654c0,0.484,0.025,0.957,0.088,1.404c0.049,0.447,0.148,0.781,0.299,1.006h-3.02
				c-0.062-0.174-0.1-0.336-0.137-0.51s-0.062-0.348-0.074-0.533c-0.473,0.484-1.031,0.832-1.678,1.031
				c-0.647,0.197-1.305,0.297-1.977,0.297c-0.521,0-1.006-0.062-1.453-0.186c-0.447-0.125-0.845-0.324-1.181-0.584
				c-0.335-0.262-0.597-0.598-0.782-1.008c-0.187-0.41-0.286-0.895-0.286-1.453c0-0.621,0.112-1.117,0.323-1.527
				c0.211-0.398,0.496-0.721,0.845-0.957s0.733-0.424,1.181-0.535c0.436-0.123,0.883-0.211,1.329-0.285
				c0.448-0.074,0.896-0.125,1.317-0.174c0.436-0.037,0.821-0.1,1.157-0.188c0.334-0.086,0.596-0.211,0.795-0.373
				c0.197-0.16,0.285-0.396,0.273-0.707c0-0.322-0.051-0.572-0.162-0.77c-0.1-0.188-0.248-0.336-0.422-0.436
				s-0.373-0.174-0.609-0.211s-0.484-0.051-0.746-0.051c-0.584,0-1.043,0.125-1.391,0.373c-0.336,0.248-0.535,0.672-0.584,1.256
				h-2.945V40.783z M32.654,42.982c-0.123,0.111-0.285,0.199-0.471,0.262c-0.188,0.061-0.398,0.111-0.609,0.16
				c-0.211,0.051-0.447,0.076-0.684,0.1c-0.236,0.025-0.472,0.062-0.708,0.1c-0.225,0.037-0.448,0.1-0.66,0.174
				c-0.211,0.074-0.409,0.162-0.57,0.287c-0.162,0.123-0.286,0.273-0.386,0.447c-0.1,0.186-0.149,0.41-0.149,0.695
				c0,0.26,0.05,0.484,0.149,0.67c0.1,0.188,0.235,0.324,0.397,0.436s0.36,0.174,0.584,0.225c0.224,0.037,0.46,0.061,0.696,0.061
				c0.583,0,1.044-0.1,1.367-0.297c0.322-0.199,0.559-0.436,0.709-0.709c0.148-0.273,0.248-0.547,0.285-0.832
				s0.049-0.51,0.049-0.672V42.982L32.654,42.982z M55.059,37.441v2h-2.188v5.381c0,0.51,0.088,0.844,0.248,1.006
				c0.174,0.174,0.51,0.248,1.008,0.248c0.174,0,0.322-0.012,0.484-0.025c0.148-0.012,0.297-0.037,0.434-0.061v2.311
				c-0.248,0.037-0.533,0.074-0.844,0.086c-0.311,0.014-0.609,0.025-0.908,0.025c-0.459,0-0.895-0.037-1.316-0.1
				c-0.41-0.061-0.783-0.186-1.094-0.373c-0.311-0.186-0.559-0.434-0.746-0.781c-0.186-0.336-0.273-0.783-0.273-1.318v-6.398h-1.801
				v-2h1.84v-3.256h2.98v3.256H55.059z M11.718,41.404v3.518H8.127v-3.518H11.718z"/>
		</g>
	</g>
	<g id="layer2_1_">
	</g>
</g>
</svg>
