<?xml version="1.0" encoding="utf-8"?>
<!-- Generator: Adobe Illustrator 16.0.0, SVG Export Plug-In . SVG Version: 6.00 Build 0)  -->
<!DOCTYPE svg PUBLIC "-//W3C//DTD SVG 1.1//EN" "http://www.w3.org/Graphics/SVG/1.1/DTD/svg11.dtd">
<svg version="1.1" id="Layer_1" xmlns="http://www.w3.org/2000/svg" xmlns:xlink="http://www.w3.org/1999/xlink" x="0px" y="0px"
	 width="18.473px" height="18.472px" viewBox="0 0 18.473 18.472" enable-background="new 0 0 18.473 18.472" xml:space="preserve">
<g id="Page-1">
	<g id="icon-111-search">
		<path id="search" fill="#FBEA24" d="M11.579,13.304c-1.199,0.854-2.666,1.355-4.249,1.355C3.281,14.659,0,11.378,0,7.33
			C0,3.281,3.281,0,7.33,0c4.048,0,7.329,3.281,7.329,7.33c0,1.583-0.502,3.05-1.355,4.249l4.814,4.814
			c0.476,0.476,0.471,1.234,0,1.705l-0.02,0.02c-0.47,0.471-1.234,0.471-1.705,0L11.579,13.304L11.579,13.304z M7.33,12.935
			c3.095,0,5.604-2.51,5.604-5.604c0-3.096-2.51-5.605-5.604-5.605c-3.096,0-5.605,2.51-5.605,5.605
			C1.725,10.425,4.234,12.935,7.33,12.935L7.33,12.935z"/>
	</g>
</g>
</svg>
