<?xml version="1.0" encoding="UTF-8" standalone="no"?>
<!-- Generator: Adobe Illustrator 16.0.0, SVG Export Plug-In . SVG Version: 6.00 Build 0)  -->

<svg
   xmlns:dc="http://purl.org/dc/elements/1.1/"
   xmlns:cc="http://creativecommons.org/ns#"
   xmlns:rdf="http://www.w3.org/1999/02/22-rdf-syntax-ns#"
   xmlns:svg="http://www.w3.org/2000/svg"
   xmlns="http://www.w3.org/2000/svg"
   xmlns:sodipodi="http://sodipodi.sourceforge.net/DTD/sodipodi-0.dtd"
   xmlns:inkscape="http://www.inkscape.org/namespaces/inkscape"
   version="1.1"
   id="Layer_1"
   x="0px"
   y="0px"
   width="37"
   height="33"
   viewBox="0 0 37 33"
   enable-background="new 0 0 31 24"
   xml:space="preserve"
   inkscape:version="0.48.4 r9939"
   sodipodi:docname="web_letsmt.svg"><metadata
   id="metadata3050"><rdf:RDF><cc:Work
       rdf:about=""><dc:format>image/svg+xml</dc:format><dc:type
         rdf:resource="http://purl.org/dc/dcmitype/StillImage" /></cc:Work></rdf:RDF></metadata><defs
   id="defs3048" /><sodipodi:namedview
   pagecolor="#ffffff"
   bordercolor="#666666"
   borderopacity="1"
   objecttolerance="10"
   gridtolerance="10"
   guidetolerance="10"
   inkscape:pageopacity="0"
   inkscape:pageshadow="2"
   inkscape:window-width="1280"
   inkscape:window-height="1002"
   id="namedview3046"
   showgrid="false"
   fit-margin-top="4.5"
   fit-margin-left="3"
   fit-margin-right="3"
   fit-margin-bottom="4.5"
   inkscape:zoom="18.451613"
   inkscape:cx="18.5"
   inkscape:cy="20.641683"
   inkscape:window-x="1272"
   inkscape:window-y="-8"
   inkscape:window-maximized="1"
   inkscape:current-layer="g3024" />
<g
   id="g3024"
   transform="translate(3,4.5)"
   style="fill:#000000">
	
	
	<path
   d="M 18.498993,13.175737 H 5.6868706 c -0.5440224,0 -0.9855478,0.447 -0.9855478,1 0,0.553 0.4415254,1 0.9855478,1 H 18.498993 c 0.545008,0 0.985548,-0.447 0.985548,-1 0,-0.553 -0.44054,-1 -0.985548,-1 z"
   id="path3030"
   inkscape:connector-curvature="0"
   style="fill:#ffffff" />
	
	<path
   d="M 18.44841,17.175737 H 5.6832575 c -0.5420279,0 -0.9819347,0.447 -0.9819347,1 0,0.553 0.4399068,1 0.9819347,1 H 18.44841 c 0.54301,0 0.981935,-0.447 0.981935,-1 0,-0.553 -0.438925,-1 -0.981935,-1 z"
   id="path3034"
   inkscape:connector-curvature="0"
   style="fill:#ffffff" />
	
	<path
   style="fill:#ffffff"
   d="M 7,4 C 4.794,4 3,5.794 3,8 l 0,16 c 0,2.206 1.794,4 4,4 l 23,0 c 2.206,0 4,-1.794 4,-4 L 34,8 C 34,5.794 32.206,4 30,4 L 7,4 z M 6.65625,5.9375 26.1875,6 c -0.0141,0.2762789 -0.03125,0.5527007 -0.03125,0.90625 0,0.4266344 0.01141,0.7883537 0.03125,1.09375 L 21.15625,8 6.21875,8 C 6.2328308,7.7237211 6.25,7.4472993 6.25,7.09375 6.25,6.6549348 6.239602,6.277768 6.21875,5.96875 6.3472362,5.9356263 6.5073055,5.9370235 6.65625,5.9375 z M 28.1875,6 30,6 c 0.106244,3.4e-4 0.210696,0.015004 0.3125,0.03125 C 30.29202,6.3283783 30.25,6.6600678 30.25,7.0625 30.25,7.4284579 30.29527,7.7179209 30.3125,8 l -2.125,0 C 28.207324,7.6946037 28.21875,7.3328844 28.21875,6.90625 28.21875,6.5527007 28.201581,6.2762789 28.1875,6 z M 4.96875,10 21.15625,10 32,10 32,11 32,12.375 32,24 c 0,1.103 -0.897,2 -2,2 L 7,26 C 5.897,26 5,25.103 5,24 L 5,12.375 C 4.9761308,11.607817 4.9666362,10.792255 4.96875,10 z"
   transform="translate(-3,-4)"
   id="path3038"
   inkscape:connector-curvature="0" />
	
	
	
<path
   d="M 18.383209,9.125972 H 5.6180565 c -0.5420279,0 -0.9819347,0.447 -0.9819347,1 0,0.552999 0.4399068,0.999999 0.9819347,0.999999 H 18.383209 c 0.54301,0 0.981935,-0.447 0.981935,-0.999999 0,-0.553 -0.438925,-1 -0.981935,-1 z"
   id="path3030-1"
   inkscape:connector-curvature="0"
   style="fill:#ffffff" /><rect
   style="fill:#ffffff;fill-opacity:1"
   id="rect3421"
   width="5.0402098"
   height="4.2814689"
   x="21.225523"
   y="8.8688822"
   rx="0.79487181"
   ry="0.82291669" /><rect
   style="fill:#ffffff;fill-opacity:1"
   id="rect3421-2"
   width="5.0402098"
   height="4.2814689"
   x="21.30682"
   y="15.101398"
   rx="0.79487181"
   ry="0.82291669" /></g>
</svg>