<?xml version="1.0" encoding="UTF-8" standalone="no"?>
<!-- Generator: Adobe Illustrator 16.0.0, SVG Export Plug-In . SVG Version: 6.00 Build 0)  -->

<svg
   xmlns:dc="http://purl.org/dc/elements/1.1/"
   xmlns:cc="http://creativecommons.org/ns#"
   xmlns:rdf="http://www.w3.org/1999/02/22-rdf-syntax-ns#"
   xmlns:svg="http://www.w3.org/2000/svg"
   xmlns="http://www.w3.org/2000/svg"
   xmlns:sodipodi="http://sodipodi.sourceforge.net/DTD/sodipodi-0.dtd"
   xmlns:inkscape="http://www.inkscape.org/namespaces/inkscape"
   version="1.1"
   id="Layer_1"
   x="0px"
   y="0px"
   width="26.653999"
   height="31.216999"
   viewBox="0 0 26.654 31.217"
   enable-background="new 0 0 20.654 25.417"
   xml:space="preserve"
   inkscape:version="0.48.4 r9939"
   sodipodi:docname="doc_letsmt.svg"><metadata
   id="metadata17"><rdf:RDF><cc:Work
       rdf:about=""><dc:format>image/svg+xml</dc:format><dc:type
         rdf:resource="http://purl.org/dc/dcmitype/StillImage" /></cc:Work></rdf:RDF></metadata><defs
   id="defs15" /><sodipodi:namedview
   pagecolor="#ffffff"
   bordercolor="#666666"
   borderopacity="1"
   objecttolerance="10"
   gridtolerance="10"
   guidetolerance="10"
   inkscape:pageopacity="0"
   inkscape:pageshadow="2"
   inkscape:window-width="1280"
   inkscape:window-height="962"
   id="namedview13"
   showgrid="false"
   fit-margin-top="2.9"
   fit-margin-right="3"
   fit-margin-left="3"
   fit-margin-bottom="2.9"
   inkscape:zoom="10.978306"
   inkscape:cx="13.337174"
   inkscape:cy="15.620492"
   inkscape:window-x="-8"
   inkscape:window-y="-8"
   inkscape:window-maximized="1"
   inkscape:current-layer="g3" />
<g
   id="g3"
   transform="translate(3,2.9000001)"
   style="fill:#000000">
	
	<path
   d="M 20.361,5.945 14.709,0.292 C 14.521,0.105 14.268,0 14.002,0 H 1 C 0.448,0 0,0.447 0,1 v 23.417 c 0,0.553 0.448,1 1,1 h 18.654 c 0.553,0 1,-0.447 1,-1 V 6.652 c 0,-0.265 -0.105,-0.519 -0.293,-0.707 z M 18.088,6.5 H 14.585 V 2.997 L 18.088,6.5 z M 2,23.417 V 2 h 10.585 v 5.5 c 0,0.552 0.447,1 1,1 h 5.069 V 23.417 H 2 z"
   id="path7"
   inkscape:connector-curvature="0"
   style="fill:#7b8ea0" />
	
	<path
   d="M 15.38135,18.729879 H 5.0579405 c -0.5104831,0 -0.9247882,0.447 -0.9247882,1 0,0.553 0.4143051,1 0.9247882,1 H 15.38135 c 0.511408,0 0.924789,-0.447 0.924789,-1 0,-0.553 -0.413381,-1 -0.924789,-1 z"
   id="path11"
   inkscape:connector-curvature="0"
   style="fill:#7b8ea0" />
<path 
   d="M 15.298408,14.565039 H 4.9749979 c -0.5104831,0 -0.9247882,0.447 -0.9247882,1 0,0.553 0.4143051,1 0.9247882,1 H 15.298408 c 0.511408,0 0.924789,-0.447 0.924789,-1 0,-0.553 -0.413381,-1 -0.924789,-1 z"
   id="path11-7"
   inkscape:connector-curvature="0"
   style="fill:#7b8ea0" /><path
   d="M 15.150301,10.447828 H 4.9675074 c -0.5035297,0 -0.9121915,0.447 -0.9121915,1 0,0.553 0.4086618,1 0.9121915,1 H 15.150301 c 0.504442,0 0.912193,-0.447 0.912193,-1 0,-0.553 -0.407751,-1 -0.912193,-1 z"
   id="path11-7-0"
   inkscape:connector-curvature="0"
   style="fill:#7b8ea0" /></g>
</svg>