<?xml version="1.0" encoding="utf-8"?>
<!-- Generator: Adobe Illustrator 18.0.0, SVG Export Plug-In . SVG Version: 6.00 Build 0)  -->
<!DOCTYPE svg PUBLIC "-//W3C//DTD SVG 1.1//EN" "http://www.w3.org/Graphics/SVG/1.1/DTD/svg11.dtd">
<svg version="1.1" id="Layer_1" xmlns="http://www.w3.org/2000/svg" xmlns:xlink="http://www.w3.org/1999/xlink" x="0px" y="0px"
	 viewBox="0 0 240.2 229.4" enable-background="new 0 0 240.2 229.4" xml:space="preserve">
<g>
	<g>
		<rect x="28.9" y="45.1" fill="#E5332A" width="15.9" height="23.9"/>
	</g>
	<g>
		<rect x="5" y="45.1" fill="#E5332A" width="15.9" height="23.9"/>
	</g>
	<g>
		<rect x="50.1" y="45.1" fill="#35A8E0" width="15.9" height="45.1"/>
	</g>
	<g>
		<rect x="100.5" y="42.4" fill="#2DAB66" width="15.9" height="26.5"/>
	</g>
	<g>
		
			<rect x="81.2" y="46.1" transform="matrix(-0.7071 0.7071 -0.7071 -0.7071 187.7362 35.0783)" fill="#FFDD00" width="10.9" height="20.6"/>
	</g>
	<g>
		
			<rect x="74.3" y="46.1" transform="matrix(-0.7071 -0.7071 0.7071 -0.7071 96.3028 152.731)" fill="#FFDD00" width="10.9" height="20.6"/>
	</g>
	<path fill="#FFFFFF" d="M161.5,79.6c22,0,39.8-17.8,39.8-39.8S183.4,0,161.5,0c-22,0-39.8,17.8-39.8,39.8S139.5,79.6,161.5,79.6z
		 M161.5,13.3c14.6,0,26.5,11.9,26.5,26.5s-11.9,26.5-26.5,26.5S135,54.4,135,39.8S146.8,13.3,161.5,13.3z"/>
	<rect y="31.7" fill="#FFFFFF" width="132.3" height="13.5"/>
	<circle fill="#E5332A" cx="36.8" cy="82.2" r="8"/>
	<circle fill="#E5332A" cx="13" cy="82.2" r="8"/>
</g>
<g>
	<g>
		<path fill="#FFFFFF" d="M0,139.7h11.8v31.2h6.6v-31.2h11.8v-6.1H0V139.7z M39.3,149.1v-6.3h-6.4v28.1h6.4v-10.7
			c0-7.5,3.9-11.1,9.6-11.1h0.4v-6.8C44.3,142.1,41.1,144.9,39.3,149.1z M65.8,142.4c-4.5,0-7.5,0.9-10.6,2.3l1.7,5.1
			c2.6-1.1,4.9-1.8,8-1.8c4.5,0,7,2.1,7,6.1v0.7c-2.2-0.7-4.4-1.2-7.6-1.2c-6.9,0-11.6,3-11.6,9v0.1c0,5.6,4.7,8.7,10,8.7
			c4.3,0,7.2-1.8,9.2-4.1v3.5h6.3v-16.7c0-3.7-1-6.7-3-8.7C73.1,143.6,70,142.4,65.8,142.4z M72,160.8c0,3.6-3.2,6-7.5,6
			c-3.1,0-5.5-1.5-5.5-4.3v-0.1c0-2.9,2.4-4.7,6.6-4.7c2.6,0,4.7,0.5,6.4,1.1V160.8z M101.5,142.2c-4.4,0-7,2.3-8.8,4.9v-4.3h-6.4
			v28.1h6.4V155c0-4.4,2.6-7,6.3-7c3.8,0,6,2.5,6,6.9v16h6.4V153C111.5,146.5,107.8,142.2,101.5,142.2z M131,154.3
			c-3.3-1.1-6.3-1.9-6.3-4v-0.1c0-1.6,1.4-2.8,3.9-2.8c2.3,0,5.2,1,7.9,2.7l2.6-4.6c-3-2-6.8-3.2-10.3-3.2c-5.6,0-10,3.2-10,8.6v0.1
			c0,5.4,4.6,7.1,8.8,8.2c3.3,1,6.3,1.8,6.3,3.9v0.1c0,1.9-1.6,3-4.4,3c-2.9,0-6.1-1.2-9.2-3.5l-2.9,4.4c3.5,2.8,7.9,4.2,11.9,4.2
			c5.9,0,10.4-2.9,10.4-8.8v-0.1C139.7,157.4,135.1,155.6,131,154.3z M146.9,170.9h6.4v-38.8h-6.4V170.9z M173.2,142.4
			c-4.5,0-7.5,0.9-10.6,2.3l1.7,5.1c2.6-1.1,4.9-1.8,8-1.8c4.5,0,7,2.1,7,6.1v0.7c-2.2-0.7-4.4-1.2-7.6-1.2c-6.9,0-11.6,3-11.6,9
			v0.1c0,5.6,4.7,8.7,10,8.7c4.3,0,7.2-1.8,9.2-4.1v3.5h6.3v-16.7c0-3.7-1-6.7-3-8.7C180.5,143.6,177.4,142.4,173.2,142.4z
			 M179.4,160.8c0,3.6-3.2,6-7.5,6c-3.1,0-5.5-1.5-5.5-4.3v-0.1c0-2.9,2.4-4.7,6.6-4.7c2.6,0,4.7,0.5,6.4,1.1V160.8z M200.9,135.1
			h-6.4v7.7h-3.6v5.5h3.6v14.8c0,6.2,3.4,8.2,8.1,8.2c2.4,0,4.2-0.5,5.8-1.4v-5.3c-1.3,0.6-2.6,1-4,1c-2.2,0-3.5-1-3.5-3.5v-13.8
			h7.6v-5.5h-7.6V135.1z M240.2,157.3c0-8.1-4.5-15.1-13.5-15.1c-8,0-13.7,6.6-13.7,14.6v0.1c0,8.7,6.3,14.6,14.4,14.6
			c5.2,0,8.8-2.1,11.5-5.3l-3.8-3.4c-2.2,2.2-4.5,3.4-7.6,3.4c-4.2,0-7.4-2.6-8.1-7.1h20.6C240.1,158.5,240.2,157.9,240.2,157.3z
			 M219.4,154.9c0.6-4.4,3.4-7.4,7.3-7.4c4.3,0,6.7,3.2,7.1,7.4H219.4z"/>
	</g>
</g>
<g>
	<g>
		<path fill="#FFFFFF" d="M11.3,221.8c4.3-3.3,6.3-5.3,6.3-9.3v-0.1c0-4.5-3.3-7.5-8.3-7.5c-4.3,0-6.6,1.8-9,5l3.7,3
			c1.8-2.2,3.1-3.2,4.9-3.2c1.9,0,3.2,1.1,3.2,3.1c0,2-1.2,3.3-4.2,5.8l-8,6.6v4.2h17.9v-4.6H7.3L11.3,221.8z M32.1,204.8
			c-6.4,0-10.8,5.5-10.8,12.5v0.1c0,7,4.2,12.4,10.7,12.4c6.5,0,10.8-5.5,10.8-12.5v-0.1C42.8,210.3,38.4,204.8,32.1,204.8z
			 M37.3,217.4c0,4.4-2,7.6-5.2,7.6c-3.2,0-5.3-3.3-5.3-7.7v-0.1c0-4.4,2.1-7.6,5.2-7.6C35.2,209.6,37.3,213,37.3,217.4L37.3,217.4z
			 M44.6,207.2l1.1,4.3l4.2-1v18.9h5.2v-24.3h-3.6L44.6,207.2z M69.2,213.7c-1.3,0-2.2,0.2-3.2,0.4l0.3-4.2h10.3v-4.7H61.8
			l-0.7,11.9l3.1,2c1.1-0.5,2.5-0.9,4-0.9c2.5,0,4.3,1.2,4.3,3.3v0.1c0,2.1-1.6,3.3-4,3.3c-2.1,0-3.9-1-5.8-2.6l-3.2,3.8
			c2.3,2.2,5.2,3.6,9,3.6c5.6,0,9.2-3.2,9.2-8.3v-0.1C77.7,216,73.9,213.7,69.2,213.7z"/>
	</g>
</g>
</svg>
