<?xml version="1.0" encoding="UTF-8" standalone="no"?>
<!-- Generator: Adobe Illustrator 16.0.0, SVG Export Plug-In . SVG Version: 6.00 Build 0)  -->

<svg
   xmlns:dc="http://purl.org/dc/elements/1.1/"
   xmlns:cc="http://creativecommons.org/ns#"
   xmlns:rdf="http://www.w3.org/1999/02/22-rdf-syntax-ns#"
   xmlns:svg="http://www.w3.org/2000/svg"
   xmlns="http://www.w3.org/2000/svg"
   xmlns:sodipodi="http://sodipodi.sourceforge.net/DTD/sodipodi-0.dtd"
   xmlns:inkscape="http://www.inkscape.org/namespaces/inkscape"
   version="1.1"
   id="Layer_3"
   x="0px"
   y="0px"
   width="152.4375"
   height="37.299999"
   viewBox="19.842 4.252 152.4375 37.299999"
   enable-background="new 19.842 4.252 155.905 34.016"
   xml:space="preserve"
   inkscape:version="0.48.5 r10040"
   sodipodi:docname="logo_large.svg"><metadata
   id="metadata49"><rdf:RDF><cc:Work
       rdf:about=""><dc:format>image/svg+xml</dc:format><dc:type
         rdf:resource="http://purl.org/dc/dcmitype/StillImage" /></cc:Work></rdf:RDF></metadata><defs
   id="defs47" /><sodipodi:namedview
   pagecolor="#ffffff"
   bordercolor="#666666"
   borderopacity="1"
   objecttolerance="10"
   gridtolerance="10"
   guidetolerance="10"
   inkscape:pageopacity="0"
   inkscape:pageshadow="2"
   inkscape:window-width="1840"
   inkscape:window-height="1051"
   id="namedview45"
   showgrid="false"
   fit-margin-bottom="0"
   fit-margin-top="0"
   fit-margin-left="0"
   fit-margin-right="0"
   inkscape:zoom="2.1744011"
   inkscape:cx="-90.632138"
   inkscape:cy="-4.0038694"
   inkscape:window-x="1271"
   inkscape:window-y="-9"
   inkscape:window-maximized="1"
   inkscape:current-layer="Layer_3" />
<g
   id="g3"
   transform="translate(-1.9705019,-3.4314836)"
   style="fill:#ffffff;fill-opacity:1">
	<path
   d="m 25.144,35.48 -1.025,-5.643 c -0.171,-0.94 -0.427,-2.632 -0.582,-3.539 0,0.958 0.086,1.898 0.086,3.559 v 5.622 H 21.757 V 24.366 h 2.858 l 0.99,5.471 c 0.188,1.078 0.326,1.896 0.409,2.686 0.088,-0.789 0.225,-1.607 0.413,-2.686 l 0.992,-5.471 h 2.854 V 35.48 H 28.41 v -5.623 c 0,-1.659 0.087,-2.6 0.087,-3.558 -0.153,0.907 -0.413,2.599 -0.583,3.539 l -1.026,5.642 h -1.744 l 0,0 z"
   id="path5"
   inkscape:connector-curvature="0"
   style="fill:#ffffff;fill-opacity:1" />
	<path
   d="m 32.757,35.48 2.206,-11.113 h 2.497 l 2.208,11.113 h -2.035 l -0.36,-2.188 h -2.118 l -0.359,2.188 h -2.039 z m 2.684,-3.967 h 1.541 l -0.513,-3.094 c -0.119,-0.785 -0.188,-1.418 -0.256,-2.104 -0.072,0.684 -0.14,1.318 -0.261,2.104 l -0.511,3.094 z"
   id="path7"
   inkscape:connector-curvature="0"
   style="fill:#ffffff;fill-opacity:1" />
	<path
   d="m 46.075,32.113 h 1.95 c 0,2.549 -0.91,3.574 -3.099,3.574 -2.205,0 -3.146,-1.162 -3.146,-3.813 v -3.918 c 0,-2.648 0.975,-3.796 3.146,-3.796 2.173,0 3.099,1.011 3.099,3.576 h -1.95 c 0,-1.283 -0.308,-1.76 -1.149,-1.76 -0.786,0 -1.179,0.564 -1.179,1.779 v 4.342 c 0,1.214 0.392,1.777 1.179,1.777 0.82,0 1.149,-0.446 1.149,-1.761 z"
   id="path9"
   inkscape:connector-curvature="0"
   style="fill:#ffffff;fill-opacity:1" />
	<path
   d="M 56.84,35.48 H 54.858 V 30.726 H 52.651 V 35.48 H 50.668 V 24.366 h 1.983 v 4.582 h 2.206 v -4.582 h 1.982 l 0.001,11.114 0,0 z"
   id="path11"
   inkscape:connector-curvature="0"
   style="fill:#ffffff;fill-opacity:1" />
	<path
   d="m 59.761,24.366 h 1.985 V 35.48 H 59.761 V 24.366 z"
   id="path13"
   inkscape:connector-curvature="0"
   style="fill:#ffffff;fill-opacity:1" />
	<path
   d="m 67.188,30.265 c -0.274,-0.959 -0.531,-1.982 -0.736,-2.891 0.05,1.027 0.12,2.293 0.12,2.941 v 5.164 H 64.656 V 24.365 h 2.377 l 1.471,5.216 c 0.273,0.957 0.529,1.984 0.733,2.891 -0.049,-1.027 -0.12,-2.291 -0.12,-2.943 v -5.163 h 1.918 V 35.48 h -2.378 l -1.469,-5.215 z"
   id="path15"
   inkscape:connector-curvature="0"
   style="fill:#ffffff;fill-opacity:1" />
	<path
   d="m 73.956,24.366 h 5.369 v 1.812 H 75.94 v 2.771 h 2.942 v 1.775 H 75.94 v 2.943 h 3.385 v 1.811 H 73.956 V 24.366 z"
   id="path17"
   inkscape:connector-curvature="0"
   style="fill:#ffffff;fill-opacity:1" />
	<g
   id="g19"
   style="fill:#ffffff;fill-opacity:1">
		<path
   d="m 87.803,26.179 h -1.897 v -1.812 h 5.776 v 1.812 h -1.898 v 9.301 h -1.981 v -9.301 l 0,0 z"
   id="path21"
   inkscape:connector-curvature="0"
   style="fill:#ffffff;fill-opacity:1" />
		<path
   d="m 94.156,24.366 h 2.994 c 2.139,0 3.148,0.616 3.148,3.607 0,1.795 -0.499,2.789 -1.439,3.267 l 1.594,4.239 H 98.309 L 96.976,31.53 h -0.834 v 3.949 H 94.156 V 24.366 l 0,0 z m 1.986,1.813 v 3.574 h 1.008 c 0.805,0 1.147,-0.357 1.147,-1.779 0,-1.367 -0.343,-1.795 -1.13,-1.795 h -1.025 z"
   id="path23"
   inkscape:connector-curvature="0"
   style="fill:#ffffff;fill-opacity:1" />
		<path
   d="m 102.71,35.48 2.207,-11.113 h 2.498 l 2.207,11.113 h -2.037 l -0.357,-2.188 h -2.12 l -0.36,2.188 h -2.038 z m 2.688,-3.967 h 1.537 l -0.512,-3.094 c -0.123,-0.785 -0.188,-1.418 -0.256,-2.104 -0.071,0.684 -0.141,1.318 -0.258,2.104 l -0.511,3.094 z"
   id="path25"
   inkscape:connector-curvature="0"
   style="fill:#ffffff;fill-opacity:1" />
		<path
   d="m 114.627,30.265 c -0.274,-0.959 -0.532,-1.982 -0.734,-2.891 0.05,1.027 0.12,2.293 0.12,2.941 v 5.164 h -1.917 V 24.365 h 2.376 l 1.473,5.216 c 0.272,0.957 0.529,1.984 0.733,2.891 -0.05,-1.027 -0.12,-2.291 -0.12,-2.943 v -5.163 h 1.917 V 35.48 h -2.378 l -1.47,-5.215 z"
   id="path27"
   inkscape:connector-curvature="0"
   style="fill:#ffffff;fill-opacity:1" />
		<path
   d="m 123.82,30.607 c -1.642,-0.412 -2.58,-1.145 -2.58,-3.266 0,-1.948 0.938,-3.182 3.059,-3.182 2.325,0 3.098,1.045 3.098,3.249 h -1.984 c 0,-0.958 -0.324,-1.435 -1.113,-1.435 -0.769,0 -1.076,0.477 -1.076,1.365 0,1.045 0.393,1.438 1.557,1.71 2.068,0.496 2.752,1.337 2.752,3.147 0,2.617 -1.231,3.489 -3.215,3.489 -2.277,0 -3.199,-0.973 -3.199,-3.489 h 1.984 c 0,1.215 0.377,1.678 1.215,1.678 0.889,0 1.23,-0.428 1.23,-1.658 0,-0.819 -0.377,-1.282 -1.728,-1.608 z"
   id="path29"
   inkscape:connector-curvature="0"
   style="fill:#ffffff;fill-opacity:1" />
		<path
   d="m 130.203,24.366 h 1.984 v 9.303 h 2.598 v 1.811 h -4.583 l 0.001,-11.114 0,0 z"
   id="path31"
   inkscape:connector-curvature="0"
   style="fill:#ffffff;fill-opacity:1" />
		<path
   d="m 137.003,35.48 2.206,-11.113 h 2.495 l 2.209,11.113 h -2.037 l -0.355,-2.188 H 139.4 l -0.361,2.188 h -2.036 z m 2.686,-3.967 h 1.539 l -0.512,-3.094 c -0.121,-0.785 -0.19,-1.418 -0.26,-2.104 -0.066,0.684 -0.137,1.318 -0.254,2.104 l -0.513,3.094 z"
   id="path33"
   inkscape:connector-curvature="0"
   style="fill:#ffffff;fill-opacity:1" />
		<path
   d="m 147.044,26.179 h -1.897 v -1.812 h 5.78 v 1.812 h -1.898 v 9.301 h -1.984 v -9.301 l -10e-4,0 z"
   id="path35"
   inkscape:connector-curvature="0"
   style="fill:#ffffff;fill-opacity:1" />
		<path
   d="m 153.398,24.366 h 1.99 V 35.48 h -1.99 V 24.366 z"
   id="path37"
   inkscape:connector-curvature="0"
   style="fill:#ffffff;fill-opacity:1" />
		<path
   d="m 158.132,27.939 c 0,-2.564 0.956,-3.779 3.213,-3.779 2.271,0 3.232,1.198 3.232,3.779 v 3.969 c 0,2.563 -0.961,3.779 -3.232,3.779 -2.256,0 -3.213,-1.216 -3.213,-3.779 v -3.969 z m 4.459,-0.066 c 0,-1.3 -0.375,-1.898 -1.248,-1.898 -0.837,0 -1.228,0.599 -1.228,1.882 v 4.118 c 0,1.301 0.378,1.899 1.228,1.899 0.873,0 1.248,-0.599 1.248,-1.899 v -4.102 z"
   id="path39"
   inkscape:connector-curvature="0"
   style="fill:#ffffff;fill-opacity:1" />
		<path
   d="m 169.853,30.265 c -0.275,-0.959 -0.529,-1.982 -0.733,-2.891 0.05,1.027 0.118,2.293 0.118,2.941 v 5.164 h -1.916 V 24.365 h 2.379 l 1.467,5.216 c 0.275,0.957 0.529,1.984 0.734,2.891 -0.049,-1.027 -0.117,-2.291 -0.117,-2.943 v -5.163 h 1.916 V 35.48 h -2.377 l -1.471,-5.215 z"
   id="path41"
   inkscape:connector-curvature="0"
   style="fill:#ffffff;fill-opacity:1" />
	</g>
</g>
<path
   d="m 46.241498,6.1075173 c -0.423,3.6640014 -2.915,6.0600017 -12.61,1.3720008 -1.739,-0.8399998 -3.43,-1.2760008 -5.002,-1.3720008 h -1.331 c -4.447,0.289 -7.612,3.4800014 -7.453,8.1240017 h 1.429 c 0,-4.7490013 5.13,-4.7100013 9.749,-2.478 10.748,5.216 16.236,1.646 16.588,-5.6460017 l -1.37,0 0,0 z"
   id="path43"
   inkscape:connector-curvature="0"
   style="fill:#ffffff;fill-opacity:1" />
<rect
   style="fill:#ffffff;fill-opacity:1;stroke:#fff000;stroke-width:0.66764337;stroke-opacity:0"
   id="rect3026"
   width="151.76593"
   height="1.8449813"
   x="20.170979"
   y="38.579704" /></svg>