<?xml version="1.0" encoding="utf-8"?>
<!-- Generator: Adobe Illustrator 16.0.0, SVG Export Plug-In . SVG Version: 6.00 Build 0)  -->
<!DOCTYPE svg PUBLIC "-//W3C//DTD SVG 1.1//EN" "http://www.w3.org/Graphics/SVG/1.1/DTD/svg11.dtd">
<svg version="1.1" id="Layer_1" xmlns="http://www.w3.org/2000/svg" xmlns:xlink="http://www.w3.org/1999/xlink" x="0px" y="0px"
	 width="737.008px" height="272.125px" viewBox="-70.864 284.882 737.008 272.125"
	 enable-background="new -70.864 284.882 737.008 272.125" xml:space="preserve">
<g>
	<path fill="#67AD2F" d="M343.001,431.8c8.782,8.531,13.177,21.075,13.177,37.641c0,16.009-3.87,29.236-11.611,39.68
		c-7.739,10.445-19.749,15.668-36.027,15.668c-13.578,0-24.354-4.62-32.342-13.86c-7.985-9.239-11.978-21.646-11.978-37.224
		c0-16.689,4.207-29.977,12.624-39.867c8.416-9.887,19.718-14.832,33.908-14.832C323.465,419.005,334.216,423.271,343.001,431.8z
		 M332.628,497.847c4.07-8.369,6.103-17.683,6.103-27.94c0-9.27-1.469-16.81-4.401-22.618c-4.649-9.142-12.664-13.713-24.041-13.713
		c-10.093,0-17.433,3.891-22.02,11.677c-4.587,7.785-6.882,17.177-6.882,28.173c0,10.566,2.295,19.371,6.882,26.415
		c4.586,7.043,11.866,10.565,21.836,10.565C321.051,510.405,328.563,506.221,332.628,497.847z"/>
	<path fill="#67AD2F" d="M448.693,431.8c8.781,8.531,13.176,21.075,13.176,37.641c0,16.009-3.871,29.236-11.611,39.68
		c-7.738,10.445-19.75,15.668-36.026,15.668c-13.575,0-24.355-4.62-32.344-13.86c-7.985-9.239-11.978-21.646-11.978-37.224
		c0-16.689,4.209-29.977,12.625-39.867c8.415-9.887,19.717-14.832,33.907-14.832C429.157,419.005,439.906,423.271,448.693,431.8z
		 M438.321,497.847c4.069-8.369,6.103-17.683,6.103-27.94c0-9.27-1.469-16.81-4.403-22.618c-4.65-9.142-12.661-13.713-24.041-13.713
		c-10.093,0-17.432,3.891-22.021,11.677c-4.589,7.785-6.88,17.177-6.88,28.173c0,10.566,2.291,19.371,6.88,26.415
		c4.589,7.043,11.866,10.565,21.84,10.565C426.746,510.405,434.253,506.221,438.321,497.847z"/>
	<path fill="#67AD2F" d="M595.769,490.082c0.508,5.57,1.926,9.838,4.264,12.81c4.294,5.382,11.742,8.068,22.352,8.068
		c6.313,0,11.866-1.343,16.666-4.035c4.801-2.688,7.199-6.851,7.199-12.479c0-4.271-1.918-7.516-5.754-9.743
		c-2.454-1.36-7.293-2.937-14.521-4.732l-13.488-3.339c-8.609-2.104-14.96-4.454-19.045-7.053
		c-7.295-4.517-10.94-10.766-10.94-18.746c0-9.4,3.436-17.01,10.299-22.827c6.863-5.814,16.094-8.72,27.69-8.72
		c15.175,0,26.113,4.391,32.818,13.174c4.201,5.567,6.239,11.571,6.116,18.006h-15.772c-0.319-3.755-1.681-7.169-4.087-10.249
		c-3.924-4.364-10.734-6.551-20.421-6.551c-6.46,0-11.352,1.204-14.677,3.607c-3.323,2.404-4.987,5.579-4.987,9.521
		c0,4.315,2.184,7.771,6.554,10.361c2.518,1.54,6.24,2.897,11.158,4.069l11.248,2.694c12.229,2.904,20.42,5.722,24.582,8.442
		c6.494,4.271,9.744,10.981,9.744,20.136c0,8.849-3.399,16.487-10.193,22.921c-6.796,6.432-17.146,9.648-31.05,9.648
		c-14.97,0-25.569-3.354-31.801-10.066c-6.23-6.713-9.568-15.016-10.006-24.917H595.769z"/>
	<path fill="#67AD2F" d="M250.072,404.012c0.203,0,0.396,0.024,0.596,0.031v-0.031h18.804v-16.979h-18.804
		c-18.726-0.002-33.932,14.914-34.469,33.512H199.74v16.516h16.586v84.202h16.516v-84.202h17.827v-0.018
		c8.752,0,15.849-7.1,15.849-15.853c0-0.218-0.022-0.431-0.033-0.645h-15.816l-15.817-0.001h-2.266
		C233.11,411.327,240.725,404.012,250.072,404.012z"/>
	<path fill="#67AD2F" d="M550.88,387.033v43.304c-8.424-7.368-18.536-11.052-30.35-11.052c-14.189,0-25.496,4.943-33.91,14.833
		c-8.416,9.889-12.622,23.176-12.622,39.866c0,15.574,3.992,27.982,11.979,37.225c7.986,9.238,18.765,13.856,32.342,13.856
		c14.376,0,25.412-4.08,33.128-12.223c1.807,6.769,7.964,11.764,15.301,11.764c0.22,0,0.433-0.023,0.646-0.033l0.003,0.002V387.033
		H550.88z M542.409,498.125c-4.069,8.374-11.578,12.556-22.525,12.556c-9.972,0-17.249-3.521-21.839-10.56
		c-4.586-7.047-6.881-15.851-6.881-26.417c0-10.996,2.295-20.389,6.881-28.175c4.59-7.784,11.928-11.676,22.023-11.676
		c11.377,0,19.389,4.57,24.037,13.716c2.936,5.807,4.406,13.347,4.406,22.614C548.512,480.441,546.478,489.755,542.409,498.125z"/>
	<g>
		<path fill="#67AD2F" d="M647.793,387.96c3.186,0,5.931,1.148,8.23,3.45c1.074,1.073,1.892,2.296,2.448,3.668
			c0.555,1.373,0.834,2.835,0.834,4.395c0,3.262-1.131,5.973-3.395,8.122c-1.111,1.109-2.363,1.955-3.754,2.53
			c-1.39,0.574-2.844,0.863-4.364,0.863c-1.559,0-3.033-0.299-4.424-0.895c-1.392-0.591-2.624-1.443-3.7-2.557
			c-1.076-1.111-1.908-2.354-2.501-3.727c-0.593-1.371-0.892-2.816-0.892-4.338c0-1.56,0.308-3.042,0.917-4.449
			c0.615-1.411,1.478-2.673,2.589-3.783C641.97,389.053,644.641,387.96,647.793,387.96z M647.793,389.85
			c-2.637,0-4.86,0.908-6.676,2.727c-1.931,2.001-2.895,4.302-2.895,6.896c0,1.26,0.232,2.465,0.695,3.615
			c0.465,1.15,1.161,2.189,2.088,3.117c0.928,0.924,1.965,1.639,3.116,2.139c1.146,0.501,2.333,0.752,3.557,0.752
			c2.672,0,4.989-0.946,6.952-2.836c0.89-0.854,1.58-1.854,2.061-3.006c0.481-1.148,0.721-2.352,0.721-3.616
			c0-2.707-0.907-5.001-2.724-6.896C652.762,390.814,650.46,389.85,647.793,389.85z M643.454,392.742h4.503
			c1.56,0,2.707,0.278,3.45,0.833c0.741,0.56,1.112,1.448,1.112,2.669c0,2.525-1.372,3.785-4.114,3.785l4.281,5.672h-2.561
			l-4.615-6.283v6.283h-2.057V392.742z M648.238,398.583c1.482,0,2.223-0.612,2.223-1.836c0-0.669-0.193-1.14-0.583-1.417
			c-0.388-0.277-1.009-0.418-1.863-0.418h-2.503v3.671H648.238z"/>
	</g>
	<path fill="#67AD2F" d="M199.223,336.734v-50.043h-50.169l0,0c-27.708,0-50.169,22.462-50.169,50.171v50.169h50.17
		c27.708,0,50.17-22.463,50.17-50.169C199.226,336.818,199.223,336.776,199.223,336.734z"/>
	<g>
		<path fill="#1E5E2B" d="M16.441,443.129c-9.578,0-17.344,7.576-17.344,16.927v0.403h-0.012v61.563h34.698v-61.967
			C33.783,450.705,26.018,443.129,16.441,443.129z"/>
		<path fill="#1E5E2B" d="M128.234,417.301c-11.122,0-21.26,5.155-28.931,13.621v-9.998h-0.835H65.573v-32.686H-68.21v133.784
			h32.417V421.066H-1.77v14.752c3.461-5.196,6.734-8.939,9.818-11.228c5.538-4.082,12.555-6.126,21.052-6.126
			c10.636,0,19.336,2.737,26.103,8.213c6.765,5.474,10.148,14.554,10.148,27.234v13.362v54.748h0.223v33.177h33.729v-45.053
			c7.671,8.464,17.81,13.621,28.931,13.621c23.924,0,43.319-23.833,43.319-53.233C171.552,441.131,152.157,417.301,128.234,417.301z
			 M118.462,499.935c-11.293,0-20.45-12.732-20.45-28.441c0-15.71,9.156-28.444,20.45-28.444c11.294,0,20.45,12.734,20.45,28.444
			C138.912,487.202,129.756,499.935,118.462,499.935z"/>
	</g>
</g>
</svg>
