<?xml version="1.0" encoding="utf-8"?>
<!-- Generator: Adobe Illustrator 16.0.0, SVG Export Plug-In . SVG Version: 6.00 Build 0)  -->
<!DOCTYPE svg PUBLIC "-//W3C//DTD SVG 1.1//EN" "http://www.w3.org/Graphics/SVG/1.1/DTD/svg11.dtd">
<svg version="1.1" id="Layer_1" xmlns="http://www.w3.org/2000/svg" xmlns:xlink="http://www.w3.org/1999/xlink" x="0px" y="0px"
	 width="63.21px" height="57.26px" viewBox="0 0 63.21 57.26" enable-background="new 0 0 63.21 57.26" xml:space="preserve">
<g>
	<rect x="0.104" y="-0.093" fill="#87162C" width="63.105" height="57.413"/>
	<path fill="#FFFFFF" d="M40.044,28.051h-3.267V14.076h3.267c1.72,0,3.27,0.676,3.27,2.563v8.877
		C43.313,27.375,41.764,28.051,40.044,28.051z M28.721,28.051V14.076h2.762v11.976h2.45v1.999H28.721z M27.934,38.585
		c-6.818-3.297-14.395-3.352-14.395,3.66h-2.112c-0.338-9.831,9.409-15.265,20.364-9.971c16.028,7.746,18.731,2.395,18.731-4.027
		v-0.169l-3.351-0.027V14.076h5.185v1.999h-2.424v3.214h2.311v2h-2.311v4.763h2.534v3.067
		C52.467,40.641,44.355,46.556,27.934,38.585z M21.904,28.051V14.076h2.789v13.975H21.904z M16.779,16.075v11.976h-2.762V16.075
		h-1.887v-1.999h6.508v1.999H16.779z M40.524,17.005c0-0.395-0.056-0.931-0.48-0.931h-0.476v9.977h0.476
		c0.425,0,0.48-0.536,0.48-0.902V17.005z"/>
</g>
</svg>