<?xml version="1.0" encoding="UTF-8" standalone="no"?>
<!-- Generator: Adobe Illustrator 16.0.0, SVG Export Plug-In . SVG Version: 6.00 Build 0)  -->

<svg
   xmlns:dc="http://purl.org/dc/elements/1.1/"
   xmlns:cc="http://creativecommons.org/ns#"
   xmlns:rdf="http://www.w3.org/1999/02/22-rdf-syntax-ns#"
   xmlns:svg="http://www.w3.org/2000/svg"
   xmlns="http://www.w3.org/2000/svg"
   xmlns:sodipodi="http://sodipodi.sourceforge.net/DTD/sodipodi-0.dtd"
   xmlns:inkscape="http://www.inkscape.org/namespaces/inkscape"
   version="1.1"
   id="Layer_1"
   x="0px"
   y="0px"
   width="37"
   height="34"
   viewBox="0 0 37 34"
   enable-background="new 0 0 31 22"
   xml:space="preserve"
   inkscape:version="0.48.4 r9939"
   sodipodi:docname="text_letsmt.svg"><metadata
   id="metadata21"><rdf:RDF><cc:Work
       rdf:about=""><dc:format>image/svg+xml</dc:format><dc:type
         rdf:resource="http://purl.org/dc/dcmitype/StillImage" /></cc:Work></rdf:RDF></metadata><defs
   id="defs19" /><sodipodi:namedview
   pagecolor="#ffffff"
   bordercolor="#666666"
   borderopacity="1"
   objecttolerance="10"
   gridtolerance="10"
   guidetolerance="10"
   inkscape:pageopacity="0"
   inkscape:pageshadow="2"
   inkscape:window-width="797"
   inkscape:window-height="480"
   id="namedview17"
   showgrid="false"
   fit-margin-top="6"
   fit-margin-left="3"
   fit-margin-right="3"
   fit-margin-bottom="6"
   inkscape:zoom="9.2258065"
   inkscape:cx="18.5"
   inkscape:cy="17"
   inkscape:window-x="279"
   inkscape:window-y="409"
   inkscape:window-maximized="0"
   inkscape:current-layer="Layer_1" />
<g
   id="g3"
   transform="translate(3,6)">
	<path
   d="M 25,2 H 1 C 0.448,2 0,1.552 0,1 0,0.448 0.448,0 1,0 h 24 c 0.553,0 1,0.448 1,1 0,0.552 -0.447,1 -1,1 z"
   id="path5"
   inkscape:connector-curvature="0"
   style="fill:#c6cacf" />
	<path
   d="M 21,6 H 1 C 0.448,6 0,5.552 0,5 0,4.448 0.448,4 1,4 h 20 c 0.553,0 1,0.448 1,1 0,0.552 -0.447,1 -1,1 z"
   id="path7"
   inkscape:connector-curvature="0"
   style="fill:#c6cacf" />
	<path
   d="M 25,10 H 1 C 0.448,10 0,9.552 0,9 0,8.448 0.448,8 1,8 h 24 c 0.553,0 1,0.448 1,1 0,0.552 -0.447,1 -1,1 z"
   id="path9"
   inkscape:connector-curvature="0"
   style="fill:#c6cacf" />
	<path
   d="M 30,14 H 1 C 0.448,14 0,13.553 0,13 0,12.447 0.448,12 1,12 h 29 c 0.553,0 1,0.447 1,1 0,0.553 -0.447,1 -1,1 z"
   id="path11"
   inkscape:connector-curvature="0"
   style="fill:#c6cacf" />
	<path
   d="M 25,18 H 1 C 0.448,18 0,17.553 0,17 0,16.447 0.448,16 1,16 h 24 c 0.553,0 1,0.447 1,1 0,0.553 -0.447,1 -1,1 z"
   id="path13"
   inkscape:connector-curvature="0"
   style="fill:#c6cacf" />
	<path
   d="M 21,22 H 1 C 0.448,22 0,21.553 0,21 0,20.447 0.448,20 1,20 h 20 c 0.553,0 1,0.447 1,1 0,0.553 -0.447,1 -1,1 z"
   id="path15"
   inkscape:connector-curvature="0"
   style="fill:#c6cacf" />
</g>
</svg>