<?xml version="1.0" encoding="utf-8"?>
<!-- Generator: Adobe Illustrator 18.0.0, SVG Export Plug-In . SVG Version: 6.00 Build 0)  -->
<!DOCTYPE svg PUBLIC "-//W3C//DTD SVG 1.1//EN" "http://www.w3.org/Graphics/SVG/1.1/DTD/svg11.dtd">
<svg version="1.1" id="Layer_1" xmlns="http://www.w3.org/2000/svg" xmlns:xlink="http://www.w3.org/1999/xlink" x="0px" y="0px"
	 viewBox="0 0 248.1 34" enable-background="new 0 0 248.1 34" xml:space="preserve">
<g>
	<rect x="10.9" y="17" fill="#E5352B" width="6" height="9"/>
</g>
<g>
	<rect x="1.9" y="17" fill="#E5352B" width="6" height="9"/>
</g>
<g>
	<rect x="18.9" y="17" fill="#39A8E0" width="6" height="17"/>
</g>
<g>
	<rect x="37.9" y="16" fill="#2EAC68" width="6" height="10"/>
</g>
<g>
	
		<rect x="30.6" y="17.4" transform="matrix(-0.7071 0.7071 -0.7071 -0.7071 70.7941 13.2278)" fill="#FFDD09" width="4.1" height="7.8"/>
</g>
<g>
	
		<rect x="28" y="17.4" transform="matrix(-0.7071 -0.7071 0.7071 -0.7071 36.3151 57.5939)" fill="#FFDD09" width="4.1" height="7.8"/>
</g>
<path fill="#FFFFFF" d="M60.9,30c8.3,0,15-6.7,15-15s-6.7-15-15-15c-8.3,0-15,6.7-15,15S52.6,30,60.9,30z M60.9,5
	c5.5,0,10,4.5,10,10s-4.5,10-10,10s-10-4.5-10-10S55.4,5,60.9,5z"/>
<rect y="12" fill="#FFFFFF" width="49.9" height="5.1"/>
<g>
	<path fill="#FFFFFF" d="M96,10.3v13h-3.9v-13h-4.6V6.9h13.2v3.4H96z"/>
	<path fill="#FFFFFF" d="M108.6,14.9c-0.2,0-0.3-0.1-0.5-0.1c-0.2,0-0.3,0-0.5,0c-0.5,0-0.9,0.1-1.3,0.3c-0.3,0.2-0.6,0.4-0.8,0.7
		s-0.4,0.5-0.4,0.9c-0.1,0.3-0.1,0.6-0.1,0.8v5.9h-3.8V11.8h3.6v1.7h0c0.3-0.6,0.7-1.1,1.2-1.4c0.5-0.4,1.2-0.6,1.9-0.6
		c0.2,0,0.3,0,0.4,0c0.1,0,0.3,0,0.4,0.1L108.6,14.9z"/>
	<path fill="#FFFFFF" d="M110.7,13.3c0.7-0.6,1.5-1.1,2.4-1.5s1.8-0.5,2.8-0.5c1,0,1.8,0.1,2.5,0.4c0.7,0.2,1.2,0.6,1.6,1.1
		c0.4,0.5,0.7,1.1,0.9,1.9c0.2,0.8,0.3,1.7,0.3,2.7v5.8h-3.5V22h-0.1c-0.3,0.5-0.7,0.8-1.3,1.1c-0.6,0.3-1.2,0.4-1.9,0.4
		c-0.5,0-0.9-0.1-1.4-0.2c-0.5-0.1-0.9-0.3-1.3-0.6c-0.4-0.3-0.7-0.6-1-1.1s-0.4-1-0.4-1.7c0-0.8,0.2-1.5,0.7-2
		c0.5-0.5,1-0.9,1.8-1.2c0.7-0.3,1.5-0.5,2.4-0.6s1.7-0.1,2.6-0.1v-0.2c0-0.6-0.2-1-0.6-1.3s-0.9-0.4-1.5-0.4
		c-0.5,0-1.1,0.1-1.6,0.3c-0.5,0.2-0.9,0.5-1.3,0.8L110.7,13.3z M117.6,18.3h-0.5c-0.4,0-0.8,0-1.3,0.1c-0.4,0-0.8,0.1-1.1,0.2
		c-0.3,0.1-0.6,0.3-0.8,0.5c-0.2,0.2-0.3,0.5-0.3,0.8c0,0.2,0,0.4,0.1,0.6c0.1,0.2,0.2,0.3,0.4,0.4c0.2,0.1,0.3,0.2,0.5,0.2
		c0.2,0,0.4,0.1,0.6,0.1c0.8,0,1.4-0.2,1.8-0.6c0.4-0.4,0.6-1,0.6-1.7V18.3z"/>
	<path fill="#FFFFFF" d="M131.9,23.3V17c0-0.3,0-0.6-0.1-0.9c-0.1-0.3-0.1-0.5-0.3-0.8s-0.3-0.4-0.5-0.5c-0.2-0.1-0.5-0.2-0.8-0.2
		s-0.6,0.1-0.9,0.2c-0.3,0.1-0.5,0.3-0.6,0.5c-0.2,0.2-0.3,0.5-0.4,0.8c-0.1,0.3-0.1,0.6-0.1,0.9v6.2h-3.8V11.8h3.7v1.6h0
		c0.1-0.2,0.3-0.5,0.5-0.7c0.2-0.2,0.5-0.4,0.8-0.6c0.3-0.2,0.6-0.3,1-0.4c0.4-0.1,0.7-0.2,1.1-0.2c0.8,0,1.4,0.1,2,0.4
		c0.5,0.3,1,0.6,1.3,1.1c0.3,0.4,0.6,0.9,0.7,1.5s0.2,1.1,0.2,1.7v7.1H131.9z"/>
	<path fill="#FFFFFF" d="M145.9,15.2c-0.3-0.3-0.7-0.5-1.1-0.7c-0.4-0.2-0.9-0.3-1.3-0.3c-0.4,0-0.7,0.1-1,0.2
		c-0.3,0.1-0.4,0.4-0.4,0.7c0,0.3,0.2,0.6,0.5,0.7c0.3,0.1,0.9,0.3,1.6,0.5c0.4,0.1,0.9,0.2,1.3,0.4c0.4,0.2,0.8,0.4,1.2,0.7
		c0.4,0.3,0.6,0.6,0.9,1c0.2,0.4,0.3,0.9,0.3,1.4c0,0.7-0.1,1.3-0.4,1.8c-0.3,0.5-0.7,0.9-1.1,1.2c-0.5,0.3-1,0.5-1.6,0.7
		c-0.6,0.1-1.2,0.2-1.8,0.2c-0.9,0-1.9-0.1-2.8-0.4c-0.9-0.3-1.6-0.7-2.2-1.3l2.1-2.2c0.3,0.4,0.8,0.7,1.2,0.9
		c0.5,0.2,1,0.4,1.6,0.4c0.3,0,0.6-0.1,0.9-0.2s0.4-0.4,0.4-0.8c0-0.4-0.2-0.6-0.6-0.8c-0.4-0.2-0.9-0.3-1.7-0.5
		c-0.4-0.1-0.8-0.2-1.2-0.4c-0.4-0.2-0.8-0.4-1.1-0.6c-0.3-0.3-0.6-0.6-0.8-1c-0.2-0.4-0.3-0.8-0.3-1.4c0-0.7,0.1-1.3,0.4-1.8
		c0.3-0.5,0.7-0.9,1.1-1.2c0.5-0.3,1-0.5,1.5-0.7c0.6-0.1,1.1-0.2,1.7-0.2c0.9,0,1.7,0.1,2.5,0.4c0.8,0.3,1.5,0.7,2.1,1.2
		L145.9,15.2z"/>
	<path fill="#FFFFFF" d="M150.6,23.3V5.8h3.8v17.4H150.6z"/>
	<path fill="#FFFFFF" d="M157.7,13.3c0.7-0.6,1.5-1.1,2.4-1.5s1.8-0.5,2.8-0.5c1,0,1.8,0.1,2.5,0.4c0.7,0.2,1.2,0.6,1.6,1.1
		c0.4,0.5,0.7,1.1,0.9,1.9c0.2,0.8,0.3,1.7,0.3,2.7v5.8h-3.5V22h-0.1c-0.3,0.5-0.7,0.8-1.3,1.1c-0.6,0.3-1.2,0.4-1.9,0.4
		c-0.5,0-0.9-0.1-1.4-0.2c-0.5-0.1-0.9-0.3-1.3-0.6c-0.4-0.3-0.7-0.6-1-1.1s-0.4-1-0.4-1.7c0-0.8,0.2-1.5,0.7-2
		c0.5-0.5,1-0.9,1.8-1.2c0.7-0.3,1.5-0.5,2.4-0.6s1.7-0.1,2.6-0.1v-0.2c0-0.6-0.2-1-0.6-1.3s-0.9-0.4-1.5-0.4
		c-0.5,0-1.1,0.1-1.6,0.3c-0.5,0.2-0.9,0.5-1.3,0.8L157.7,13.3z M164.6,18.3h-0.5c-0.4,0-0.8,0-1.3,0.1c-0.4,0-0.8,0.1-1.1,0.2
		c-0.3,0.1-0.6,0.3-0.8,0.5c-0.2,0.2-0.3,0.5-0.3,0.8c0,0.2,0,0.4,0.1,0.6c0.1,0.2,0.2,0.3,0.4,0.4c0.2,0.1,0.3,0.2,0.5,0.2
		c0.2,0,0.4,0.1,0.6,0.1c0.8,0,1.4-0.2,1.8-0.6c0.4-0.4,0.6-1,0.6-1.7V18.3z"/>
	<path fill="#FFFFFF" d="M175.5,14.6V19c0,0.5,0.1,0.9,0.3,1.2s0.6,0.4,1.1,0.4c0.2,0,0.4,0,0.6,0c0.2,0,0.4-0.1,0.5-0.1l0,2.8
		c-0.3,0.1-0.6,0.2-1,0.2c-0.4,0.1-0.8,0.1-1.2,0.1c-0.8,0-1.4-0.1-1.9-0.3s-0.9-0.5-1.3-0.8c-0.3-0.4-0.5-0.8-0.7-1.3
		c-0.1-0.5-0.2-1.1-0.2-1.7v-4.9H170v-2.8h1.8v-3h3.7v3h2.7v2.8H175.5z"/>
	<path fill="#FFFFFF" d="M191.8,17.7c0,0.2,0,0.3,0,0.5c0,0.2,0,0.3,0,0.4h-8.3c0,0.3,0.1,0.6,0.3,0.9c0.2,0.3,0.4,0.5,0.6,0.7
		c0.3,0.2,0.5,0.3,0.9,0.4c0.3,0.1,0.6,0.2,1,0.2c0.6,0,1.1-0.1,1.5-0.3c0.4-0.2,0.8-0.5,1-0.9l2.6,1.7c-0.5,0.8-1.2,1.4-2.1,1.8
		c-0.9,0.4-1.9,0.6-3.1,0.6c-0.9,0-1.7-0.1-2.4-0.4c-0.8-0.3-1.4-0.7-2-1.2c-0.6-0.5-1-1.1-1.4-1.9c-0.3-0.8-0.5-1.6-0.5-2.6
		c0-0.9,0.2-1.8,0.5-2.5s0.8-1.4,1.3-1.9s1.2-0.9,2-1.2c0.8-0.3,1.6-0.4,2.4-0.4c0.8,0,1.6,0.1,2.3,0.4c0.7,0.3,1.3,0.7,1.8,1.2
		c0.5,0.5,0.9,1.2,1.2,2C191.7,15.8,191.8,16.7,191.8,17.7z M188.3,16.2c0-0.6-0.2-1.1-0.6-1.5c-0.4-0.4-0.9-0.6-1.7-0.6
		c-0.4,0-0.7,0.1-1,0.2c-0.3,0.1-0.6,0.3-0.8,0.5c-0.2,0.2-0.4,0.4-0.6,0.7c-0.1,0.3-0.2,0.5-0.2,0.8H188.3z"/>
	<path fill="#FFFFFF" d="M200.6,23.3v-2.5l4.9-4.4c0.3-0.3,0.6-0.6,0.7-0.9s0.3-0.7,0.3-1c0-0.5-0.1-0.8-0.4-1.1
		c-0.3-0.3-0.7-0.4-1.1-0.4c-0.5,0-0.9,0.2-1.2,0.5c-0.3,0.4-0.5,0.8-0.6,1.4l-2.9-0.4c0.1-0.6,0.2-1.2,0.5-1.7s0.6-0.9,1.1-1.3
		c0.4-0.4,0.9-0.6,1.5-0.8c0.6-0.2,1.1-0.3,1.8-0.3c0.6,0,1.1,0.1,1.7,0.2c0.5,0.2,1,0.4,1.5,0.7c0.4,0.3,0.8,0.7,1,1.2
		c0.3,0.5,0.4,1.1,0.4,1.7c0,0.5-0.1,0.9-0.2,1.2c-0.1,0.4-0.3,0.7-0.5,1c-0.2,0.3-0.4,0.6-0.7,0.9s-0.5,0.5-0.8,0.8l-2.9,2.6h5.1
		v2.6H200.6z"/>
	<path fill="#FFFFFF" d="M221.7,16.9c0,0.9-0.1,1.7-0.3,2.5c-0.2,0.8-0.5,1.5-0.9,2.1c-0.4,0.6-0.9,1.1-1.5,1.5
		c-0.6,0.4-1.4,0.5-2.3,0.5s-1.7-0.2-2.3-0.5c-0.6-0.4-1.1-0.8-1.5-1.5c-0.4-0.6-0.7-1.3-0.9-2.1c-0.2-0.8-0.3-1.7-0.3-2.5
		s0.1-1.7,0.3-2.5c0.2-0.8,0.5-1.5,0.9-2.1c0.4-0.6,0.9-1.1,1.5-1.4c0.6-0.4,1.4-0.5,2.3-0.5s1.6,0.2,2.3,0.5
		c0.6,0.4,1.1,0.8,1.5,1.4c0.4,0.6,0.7,1.3,0.9,2.1C221.7,15.2,221.7,16,221.7,16.9z M218.7,16.9c0-0.4,0-0.8-0.1-1.3
		c0-0.5-0.1-0.9-0.3-1.3c-0.1-0.4-0.3-0.8-0.6-1c-0.2-0.3-0.6-0.4-1-0.4c-0.4,0-0.7,0.1-1,0.4c-0.2,0.3-0.4,0.6-0.6,1
		c-0.1,0.4-0.2,0.9-0.3,1.3c0,0.5-0.1,0.9-0.1,1.3c0,0.4,0,0.8,0.1,1.3c0,0.5,0.1,0.9,0.3,1.3c0.1,0.4,0.3,0.8,0.6,1
		c0.2,0.3,0.6,0.4,1,0.4c0.4,0,0.7-0.1,1-0.4c0.2-0.3,0.4-0.6,0.6-1c0.1-0.4,0.2-0.9,0.3-1.3C218.7,17.8,218.7,17.3,218.7,16.9z"/>
	<path fill="#FFFFFF" d="M227.5,23.3V14l-2.4,1.8l-1.5-2.1l4.1-3h2.7v12.6H227.5z"/>
	<path fill="#FFFFFF" d="M243.5,19.1c0,0.8-0.1,1.4-0.4,2c-0.3,0.6-0.6,1-1.1,1.4s-1,0.6-1.6,0.8c-0.6,0.2-1.2,0.3-1.8,0.3
		c-0.6,0-1.1-0.1-1.6-0.2s-1-0.4-1.4-0.6c-0.4-0.3-0.8-0.6-1.1-1c-0.3-0.4-0.5-0.8-0.7-1.3l2.7-0.8c0.1,0.4,0.4,0.8,0.7,1.1
		c0.4,0.3,0.8,0.4,1.3,0.4c0.5,0,1-0.2,1.3-0.5c0.4-0.3,0.6-0.8,0.6-1.4c0-0.4-0.1-0.7-0.2-0.9s-0.4-0.4-0.6-0.6
		c-0.2-0.1-0.5-0.3-0.8-0.3c-0.3-0.1-0.6-0.1-0.9-0.1c-0.5,0-1,0.1-1.5,0.2c-0.6,0.1-1.1,0.2-1.5,0.4l0.3-7.2h7.7v2.6h-5.1l-0.1,2
		c0.2,0,0.4-0.1,0.6-0.1c0.2,0,0.4,0,0.6,0c0.6,0,1.2,0.1,1.8,0.2c0.6,0.2,1,0.4,1.5,0.8s0.7,0.8,1,1.3
		C243.4,17.8,243.5,18.4,243.5,19.1z"/>
</g>
</svg>
