<?xml version="1.0" encoding="utf-8"?>
<!-- Generator: Adobe Illustrator 18.0.0, SVG Export Plug-In . SVG Version: 6.00 Build 0)  -->
<!DOCTYPE svg PUBLIC "-//W3C//DTD SVG 1.1//EN" "http://www.w3.org/Graphics/SVG/1.1/DTD/svg11.dtd">
<svg version="1.1" id="Layer_1" xmlns="http://www.w3.org/2000/svg" xmlns:xlink="http://www.w3.org/1999/xlink" x="0px" y="0px"
	 viewBox="0 0 75.9 34" enable-background="new 0 0 75.9 34" xml:space="preserve">
<g>
	<rect x="10.9" y="17" fill="#E5352B" width="6" height="9"/>
</g>
<g>
	<rect x="1.9" y="17" fill="#E5352B" width="6" height="9"/>
</g>
<g>
	<rect x="18.9" y="17" fill="#39A8E0" width="6" height="17"/>
</g>
<g>
	<rect x="37.9" y="16" fill="#2EAC68" width="6" height="10"/>
</g>
<g>
	
		<rect x="30.6" y="17.4" transform="matrix(-0.7071 0.7071 -0.7071 -0.7071 70.7941 13.2278)" fill="#FFDD09" width="4.1" height="7.8"/>
</g>
<g>
	
		<rect x="28" y="17.4" transform="matrix(-0.7071 -0.7071 0.7071 -0.7071 36.3151 57.5939)" fill="#FFDD09" width="4.1" height="7.8"/>
</g>
<path fill="#FFFFFF" d="M60.9,30c8.3,0,15-6.7,15-15s-6.7-15-15-15c-8.3,0-15,6.7-15,15S52.6,30,60.9,30z M60.9,5
	c5.5,0,10,4.5,10,10s-4.5,10-10,10s-10-4.5-10-10S55.4,5,60.9,5z"/>
<rect y="12" fill="#FFFFFF" width="49.9" height="5.1"/>
</svg>
