<?xml version="1.0" standalone="no"?>
<!DOCTYPE svg PUBLIC "-//W3C//DTD SVG 20010904//EN"
 "http://www.w3.org/TR/2001/REC-SVG-20010904/DTD/svg10.dtd">
<svg version="1.0" xmlns="http://www.w3.org/2000/svg"
 width="16.000000pt" height="16.000000pt" viewBox="0 0 16.000000 16.000000"
 preserveAspectRatio="xMidYMid meet">
<metadata>
Created by potrace 1.11, written by Peter Selinger 2001-2013
</metadata>
<g transform="translate(0.000000,16.000000) scale(0.001905,-0.001905)"
fill="#000000" stroke="none">
<path d="M3985 8384 c-107 -18 -118 -20 -135 -26 -8 -3 -42 -13 -75 -21 -34
-9 -74 -21 -90 -27 -17 -6 -32 -12 -35 -12 -3 -1 -57 -27 -121 -59 -334 -169
-593 -454 -726 -799 -35 -92 -68 -204 -78 -265 -2 -11 -7 -36 -10 -55 -11 -58
-14 -361 -4 -420 5 -30 11 -66 13 -80 10 -64 72 -268 88 -287 6 -7 8 -13 5
-13 -6 0 80 -171 115 -230 22 -35 75 -107 126 -168 15 -19 59 -65 97 -102 235
-229 490 -354 852 -417 55 -10 337 -9 391 1 17 3 44 8 60 11 15 2 41 7 57 10
17 4 38 7 48 8 9 1 17 6 17 11 0 5 3 7 6 4 9 -10 193 55 264 93 8 4 35 18 60
31 25 12 61 33 80 45 19 13 44 29 54 36 46 30 146 113 206 171 68 67 74 74
130 146 19 25 37 47 40 50 14 13 92 144 128 215 48 97 98 241 118 340 11 55
16 85 24 135 9 62 6 372 -5 410 -3 14 -8 39 -11 55 -2 17 -7 41 -11 55 -3 14
-8 34 -10 45 -10 56 -91 264 -125 320 -10 17 -23 41 -30 55 -7 14 -17 30 -21
35 -5 6 -17 24 -27 40 -41 63 -45 69 -55 81 -5 6 -30 35 -55 65 -73 87 -195
200 -270 249 -12 8 -28 21 -36 28 -7 6 -15 12 -18 12 -4 0 -25 12 -49 27 -23
14 -44 26 -47 25 -3 0 -12 5 -20 12 -14 11 -115 58 -165 76 -11 4 -32 12 -47
18 -164 66 -510 98 -703 66z"/>
<path d="M2978 4744 c-2 -1 -16 -5 -32 -8 -47 -9 -130 -53 -169 -91 -34 -33
-94 -123 -86 -129 9 -6 118 -71 156 -93 l42 -23 27 40 c50 75 146 95 205 42
26 -24 32 -36 32 -73 1 -43 -27 -113 -56 -144 -7 -7 -78 -81 -159 -166 -80
-85 -168 -177 -195 -204 -52 -55 -50 -44 -44 -193 l1 -29 355 0 c249 0 355 4
356 11 0 6 1 55 2 109 2 79 -1 100 -13 106 -8 4 -86 7 -173 6 -86 0 -156 2
-155 6 2 4 56 61 120 128 65 67 132 148 149 178 105 184 52 401 -119 486 -26
13 -60 28 -77 32 -30 8 -162 15 -167 9z"/>
<path d="M3838 4744 c-2 -1 -16 -5 -31 -8 -42 -7 -128 -52 -163 -84 -54 -51
-113 -148 -131 -217 -28 -110 -37 -283 -20 -385 32 -192 151 -342 306 -386 41
-11 156 -13 197 -3 22 5 47 12 58 14 35 8 115 67 156 114 84 97 123 223 124
406 1 274 -95 454 -284 529 -39 16 -202 31 -212 20z m160 -259 c37 -23 77 -96
90 -165 15 -82 6 -239 -17 -301 -34 -91 -83 -129 -163 -129 -88 0 -146 57
-172 167 -17 78 -14 243 7 314 38 126 151 177 255 114z"/>
<path d="M1000 4200 l0 -527 325 0 c179 0 328 3 330 7 8 12 9 210 1 217 -4 5
-98 8 -209 8 l-202 0 -1 35 c-1 19 -3 40 -4 45 -1 6 -1 15 0 20 1 6 1 27 0 48
l-2 37 44 0 c24 1 108 2 188 3 l144 2 2 108 c0 59 -3 110 -7 113 -8 4 -191 8
-214 4 -14 -3 -84 1 -106 5 -10 2 -21 -1 -25 -7 -14 -21 -23 18 -23 97 l0 80
192 0 c106 -1 199 1 207 3 12 2 15 22 14 110 -1 59 -2 110 -3 113 -1 3 -147 6
-326 5 l-325 0 0 -526z"/>
<path d="M1776 4721 c-8 -15 2 -789 11 -816 41 -122 133 -203 272 -240 50 -13
219 -14 240 -1 6 4 21 9 33 11 73 14 179 100 214 172 36 76 40 130 39 508 l0
370 -113 1 c-72 1 -115 -3 -120 -10 -4 -6 -7 -173 -7 -372 l-1 -360 -23 -33
c-61 -85 -235 -84 -287 2 -18 30 -19 55 -19 402 l-1 370 -117 1 c-64 1 -119
-1 -121 -5z"/>
<path d="M4562 4710 c-209 -75 -200 -71 -195 -93 3 -12 7 -29 11 -37 8 -23 20
-61 27 -91 11 -46 19 -59 34 -55 9 3 30 8 46 12 17 4 34 9 40 12 5 3 19 7 32
8 l23 3 0 -398 0 -399 118 2 117 1 2 85 c2 47 3 168 2 270 0 102 0 192 0 200
0 8 0 65 0 125 -1 61 -1 117 0 125 3 46 0 234 -4 240 -9 15 -205 7 -253 -10z"/>
<path d="M4939 4726 c-3 -3 -5 -212 -2 -221 2 -7 71 -10 189 -10 102 0 188 -3
190 -7 3 -4 -1 -22 -9 -40 -8 -18 -62 -153 -121 -299 -58 -146 -113 -283 -121
-303 -8 -20 -15 -38 -16 -41 0 -2 -11 -30 -25 -60 -13 -31 -22 -60 -19 -65 3
-4 59 -7 126 -6 l122 1 27 70 c32 81 167 418 183 455 6 14 11 27 12 30 1 3 5
14 10 25 113 274 107 254 107 355 0 52 0 100 -1 106 -1 7 -103 10 -326 11
-179 0 -325 0 -326 -1z"/>
<path d="M5950 4200 l0 -527 330 0 331 0 -3 116 -3 116 -200 1 c-110 1 -203 2
-207 3 -5 0 -8 42 -8 91 l0 90 48 0 c26 1 110 1 187 0 l140 -1 0 110 c0 60 -3
112 -7 116 -6 6 -98 9 -123 5 -5 -1 -14 -1 -20 0 -5 1 -59 2 -118 1 l-108 0 3
87 3 87 200 0 c110 0 202 3 205 6 4 6 5 173 1 215 -1 7 -101 11 -326 11 l-325
0 0 -527z"/>
<path d="M6743 4717 c-4 -6 -7 -877 -3 -1028 0 -14 37 -15 330 -16 l331 0 -3
116 -3 116 -205 0 -205 0 -3 93 -3 92 158 1 c87 1 170 0 186 -1 15 -1 28 2 28
7 1 4 2 54 3 111 1 87 -1 105 -15 112 -9 5 -18 7 -20 5 -5 -5 -50 -6 -161 -5
-43 1 -81 1 -85 0 -15 -3 -88 2 -96 7 -4 2 -4 9 -1 15 4 5 7 42 8 82 l1 71
195 1 c107 1 200 2 205 3 8 1 11 96 6 207 -1 21 -3 21 -321 21 -187 0 -323 -4
-327 -10z"/>
<path d="M5569 3921 c-67 -32 -98 -127 -62 -191 26 -47 62 -71 113 -75 56 -4
99 17 128 62 79 120 -50 267 -179 204z"/>
<path d="M4099 3006 c-2 -2 -40 -7 -83 -10 -43 -4 -82 -9 -86 -11 -4 -3 -25
-7 -46 -11 -20 -3 -48 -10 -61 -15 -13 -5 -23 -6 -23 -3 0 4 -7 1 -15 -6 -8
-7 -15 -10 -15 -6 0 4 -13 0 -30 -9 -16 -9 -30 -13 -30 -11 0 7 -141 -53 -157
-66 -7 -6 -13 -8 -13 -5 0 13 -218 -123 -260 -162 -10 -9 -28 -24 -41 -34 -38
-28 -151 -141 -184 -182 -16 -21 -35 -44 -42 -50 -56 -56 -190 -306 -231 -430
-60 -180 -77 -286 -77 -490 0 -128 4 -187 19 -275 13 -78 65 -250 91 -301 9
-16 15 -31 15 -34 -1 -5 37 -81 71 -145 52 -95 179 -254 275 -343 52 -49 80
-72 149 -124 12 -10 80 -54 117 -77 15 -9 30 -15 32 -14 2 2 12 -4 22 -12 11
-9 30 -21 44 -27 14 -5 46 -20 71 -32 83 -38 168 -64 324 -97 82 -18 361 -25
455 -12 300 40 592 174 803 367 83 76 95 88 148 151 89 105 178 242 209 320 7
19 17 40 21 45 19 26 89 242 103 320 15 82 21 163 21 295 0 128 -3 169 -19
270 -12 77 -70 266 -88 287 -6 7 -7 13 -4 13 23 0 -178 335 -237 395 -7 6 -33
34 -58 62 -26 27 -75 74 -110 104 -35 30 -66 56 -69 59 -9 9 -89 64 -128 88
-52 31 -238 122 -251 122 -6 0 -19 4 -29 10 -18 10 -140 46 -182 54 -14 2 -36
7 -50 10 -62 15 -360 32 -371 22z"/>
</g>
</svg>
